$MeshFormat
4.1 0 8
$EndMeshFormat
$PhysicalNames
2
2 100 "Left"
2 200 "Right"
$EndPhysicalNames
$Entities
6 7 2 0
1 0 0 0 0 
2 1 0 0 0 
3 1 1 0 0 
4 0 1 0 0 
5 2 0 0 0 
6 2 1 0 0 
1 -9.999999994736442e-08 -1e-07 -1e-07 1.0000001 1e-07 1e-07 0 2 1 -2 
2 0.9999998999999999 -1.000000000583867e-07 -1.000000000555111e-07 1.0000001 1.0000001 1.000000000555111e-07 0 2 2 -3 
3 -9.999999994736442e-08 0.9999999000000001 -1e-07 1.0000001 1.0000001 1e-07 0 2 3 -4 
4 -1e-07 -9.999999994736442e-08 -1e-07 1e-07 1.0000001 1e-07 0 2 4 -1 
5 0.9999999000000001 -1e-07 -1e-07 2.0000001 1e-07 1e-07 0 2 2 -5 
6 1.9999999 -9.999999994736442e-08 -1e-07 2.0000001 1.0000001 1e-07 0 2 5 -6 
7 0.9999999000000001 0.9999999000000001 -1e-07 2.0000001 1.0000001 1e-07 0 2 6 -3 
1 -1.000000000583867e-07 -1.000000000583867e-07 -1.000000000555111e-07 1.0000001 1.0000001 1.000000000555111e-07 1 100 4 1 2 3 4 
2 0.9999998999999999 -1.000000000583867e-07 -1.000000000555111e-07 2.0000001 1.0000001 1.000000000555111e-07 1 200 4 5 6 7 -2 
$EndEntities
$PartitionedEntities
2
2
7 1
8 2
9 12 4 0
7 0 1 1 2 0 0 0 0 
8 0 2 1 2 1 0 0 0 
9 0 3 1 1 1 1 0 0 
10 0 4 1 2 0 1 0 0 
11 0 5 1 1 2 0 0 0 
12 0 6 1 1 2 1 0 0 
13 1 2 2 1 2 1 0.5 0 0 
14 1 3 2 1 2 0.5 1 0 0 
15 1 5 2 1 2 1.5 0 0 0 
8 1 1 1 2 0 0 0 1 0 0 0 2 7 -8 
9 1 2 1 2 1 0 0 1 0.5 0 0 2 8 -13 
10 1 2 1 1 1 0.5 0 1 1 0 0 2 13 -9 
11 1 3 1 1 0.5 1 0 1 1 0 0 2 9 -14 
12 1 3 1 2 0 1 0 0.5 1 0 0 2 14 -10 
13 1 4 1 2 0 0 0 0 1 0 0 2 10 -7 
14 1 5 1 2 1 0 0 1.5 0 0 0 2 8 -15 
15 1 5 1 1 1.5 0 0 2 0 0 0 2 15 -11 
16 1 6 1 1 2 0 0 2 1 0 0 2 11 -12 
17 1 7 1 1 1 1 0 2 1 0 0 2 12 -9 
18 2 1 2 1 2 0.5 0.5 0 1 1 0 0 2 14 -13 
19 2 2 2 1 2 1 0 0 1.5 0.5 0 0 2 13 -15 
3 2 1 1 2 0 0 0 1 1 0 1 100 5 8 9 12 13 -18 
4 2 1 1 1 0.5 0.5 0 1 1 0 1 100 3 10 11 18 
5 2 2 1 2 1 0 0 1.5 0.5 0 1 200 3 -9 14 -19 
6 2 2 1 1 1 0 0 2 1 0 1 200 5 -10 15 16 17 19 
$EndPartitionedEntities
$Nodes
25 21 1 21
0 7 0 1
1
0 0 0
0 8 0 1
2
1 0 0
0 9 0 1
3
1 1 0
0 10 0 1
4
0 1 0
0 11 0 1
5
2 0 0
0 12 0 1
6
2 1 0
0 13 0 1
8
1 0.5 0
0 14 0 1
9
0.5 1 0
0 15 0 1
11
1.5 0 0
1 8 0 1
7
0.5 0 0
1 9 0 0
1 10 0 0
1 11 0 0
1 12 0 0
1 13 0 1
10
0 0.5 0
1 14 0 0
1 15 0 0
1 16 0 1
12
2 0.5 0
1 17 0 1
13
1.5 1 0
1 18 0 1
14
0.75 0.75 0
1 19 0 1
20
1.352678571428571 0.3556547619047619 0
2 3 0 3
15
17
16
0.625 0.3749999999999999 0
0.345703125 0.654296875 0
0.2812499999999999 0.2812499999999999 0
2 4 0 0
2 5 0 0
2 6 0 3
19
21
18
1.625 0.625 0
1.71875 0.2812499999999999 0
1.272321428571429 0.7276785714285714 0
$EndNodes
$Elements
4 28 1 28
2 3 2 12
1 2 15 7 
2 8 15 2 
3 4 17 9 
4 10 17 4 
5 7 16 1 
6 1 16 10 
9 14 17 15 
10 9 17 14 
11 14 15 8 
12 15 17 16 
13 16 17 10 
14 15 16 7 
2 4 2 2
7 3 14 8 
8 9 14 3 
2 5 2 2
15 11 20 2 
18 2 20 8 
2 6 2 12
16 6 19 12 
17 13 19 6 
19 5 21 11 
20 12 21 5 
21 8 18 3 
22 3 18 13 
23 11 21 20 
24 18 19 13 
25 20 21 19 
26 19 21 12 
27 18 20 19 
28 8 20 18 
$EndElements
$GhostElements
15
21 1 1 2
15 2 1 1
8 1 1 2
3 2 1 1
27 1 1 2
18 2 1 1
11 2 1 1
25 1 1 2
28 1 1 2
2 2 1 1
19 1 1 2
7 1 1 2
23 1 1 2
9 2 1 1
10 2 1 1
$EndGhostElements
