$MeshFormat
4.1 0 8
$EndMeshFormat
$Entities
4 4 1 0
1 0 0 0 0 
2 1 0 0 0 
3 1 1 0 0 
4 0 1 0 0 
1 0 0 0 1 0 0 1 11 2 1 -2 
2 1 0 0 1 1 0 1 12 2 2 -3 
3 0 1 0 1 1 0 1 13 2 3 -4 
4 0 0 0 0 1 0 1 14 2 4 -1 
6 0 0 0 1 1 0 1 100 4 1 2 3 4 
$EndEntities
$PartitionedEntities
4
4
11 1
12 2
13 3
14 4
10 13 4 0
5 0 1 1 4 0 0 0 0 
6 0 2 1 3 1 0 0 0 
7 0 3 1 1 1 1 0 0 
8 0 4 1 2 0 1 0 0 
9 2 6 3 1 2 3 0.5 0.5 0 0 
10 1 4 2 2 4 0 0.7500000000004128 0 0 
11 1 3 2 1 2 0.7500000000004128 1 0 0 
12 1 2 2 1 3 1 0.2499999999994083 0 0 
13 2 6 3 2 3 4 0.375 0.5000000000003326 0 0 
14 1 1 2 3 4 0.4999999999986718 0 0 0 
5 1 1 1 4 0 0 0 0.4999999999986718 0 0 1 11 2 5 -14 
6 1 1 1 3 0.4999999999986718 0 0 1 0 0 1 11 2 14 -6 
7 1 2 1 3 1 0 0 1 0.2499999999994083 0 1 12 2 6 -12 
8 1 2 1 1 1 0.2499999999994083 0 1 1 0 1 12 2 12 -7 
9 1 3 1 1 0.7500000000004128 1 0 1 1 0 1 13 2 7 -11 
10 1 3 1 2 0 1 0 0.7500000000004128 1 0 1 13 2 11 -8 
11 1 4 1 2 0 0.7500000000004128 0 0 1 0 1 14 2 8 -10 
12 1 4 1 4 0 0 0 0 0.7500000000004128 0 1 14 2 10 -5 
13 2 6 2 1 3 0.5 0.2499999999994083 0 1 0.5 0 0 2 9 -12 
14 2 6 2 3 4 0.3749999999990039 0 0 0.4999999999986718 0.5000000000003326 0 0 2 13 -14 
15 2 6 2 1 2 0.5 0.5 0 0.750000000000539 1 0 0 2 11 -9 
16 2 6 2 2 4 0 0.5000000000003326 0 0.375 0.7500000000004128 0 0 2 10 -13 
17 2 6 2 2 3 0.375 0.5 0 0.5 0.5000000000003326 0 0 2 13 -9 
7 2 6 1 3 0.3749999999990039 0 0 1 0.5000000000003326 0 1 100 5 6 7 -13 14 -17 
8 2 6 1 4 0 0 0 0.4999999999986718 0.7500000000004128 0 1 100 4 5 12 -14 -16 
9 2 6 1 2 0 0.5 0 0.750000000000539 1 0 1 100 5 10 11 -15 16 17 
10 2 6 1 1 0.5 0.2499999999994083 0 1 1 0 1 100 4 8 9 13 15 
$EndPartitionedEntities
$Nodes
15 51 3 81
0 7 0 1
3
1 1 0
0 9 0 1
33
0.5 0.5 0
0 11 0 1
20
0.7500000000004128 1 0
0 12 0 1
13
1 0.2499999999994083 0
0 13 0 1
49
0.375 0.5000000000003326 0
1 7 0 1
12
1 0.1249999999997738 0
1 8 0 5
14
15
16
17
18
1 0.37499999999904 0
1 0.4999999999986718 0
1 0.6249999999990038 0
1 0.7499999999993359 0
1 0.8749999999996679 0
1 9 0 1
19
0.8750000000000254 1 0
1 10 0 5
21
22
23
24
25
0.6250000000009509 1 0
0.5000000000013305 1 0
0.3750000000009979 1 0
0.2500000000006652 1 0
0.1250000000003326 1 0
1 13 0 3
74
80
79
0.625 0.4999999999996679 0
0.75 0.3749999999996679 0
0.875 0.3749999999993721 0
1 15 0 5
73
65
67
70
40
0.5000000000003326 0.625 0
0.750000000000539 0.8749999999996679 0
0.6250000000009979 0.8749999999996679 0
0.6250000000006652 0.7499999999996679 0
0.5000000000006652 0.75 0
2 7 0 10
42
43
34
44
45
35
46
47
48
81
0.875 0.125 0
0.7499999999996679 0.125 0
0.75 0.25 0
0.6249999999996679 0.25 0
0.6249999999993359 0.125 0
0.4999999999993359 0.25 0
0.625 0.375 0
0.4999999999996679 0.375 0
0.4999999999990038 0.125 0
0.875 0.2499999999997042 0
2 9 0 8
56
38
58
60
69
76
77
78
0.375 0.625 0
0.25 0.75 0
0.125 0.7500000000002064 0
0.125 0.875 0
0.5000000000009979 0.875 0
0.3750000000006652 0.875 0
0.2500000000003326 0.875 0
0.3750000000003326 0.75 0
2 10 0 8
64
66
39
68
71
72
41
75
0.8750000000002064 0.8749999999996679 0
0.8750000000003326 0.7499999999993359 0
0.7500000000006652 0.7499999999993359 0
0.8750000000003326 0.6249999999990038 0
0.6250000000003326 0.6249999999996679 0
0.7500000000003326 0.6249999999993359 0
0.75 0.4999999999993359 0
0.875 0.4999999999990038 0
2 11 0 0
$EndNodes
$Elements
10 75 11 334
0 7 15 1
163 3 
0 9 15 1
331 33 
0 11 15 1
333 20 
0 12 15 1
334 13 
1 8 1 6
11 13 14 
12 14 15 
13 15 16 
14 16 17 
15 17 18 
16 18 3 
1 9 1 2
17 3 19 
18 19 20 
1 13 1 4
313 74 80 
318 80 79 
319 33 74 
327 79 13 
1 15 1 6
315 73 33 
317 20 65 
321 67 70 
323 65 67 
326 70 40 
329 40 73 
2 10 2 32
97 3 19 18 
98 19 64 18 
99 19 20 64 
100 18 64 17 
101 20 65 64 
102 65 66 64 
103 65 39 66 
104 64 66 17 
108 65 67 39 
109 17 66 16 
110 66 68 16 
111 66 39 68 
112 16 68 15 
116 67 70 39 
117 40 71 70 
118 71 72 70 
119 71 41 72 
120 70 72 39 
121 40 73 71 
122 73 74 71 
123 73 33 74 
124 71 74 41 
125 39 72 68 
126 72 75 68 
127 72 41 75 
128 68 75 15 
145 15 75 14 
146 75 79 14 
147 75 41 79 
148 14 79 13 
149 41 80 79 
153 41 74 80 
2 11 2 21
43 46 33 47 
49 33 49 47 
65 33 56 49 
105 20 21 65 
106 21 67 65 
107 21 22 67 
113 22 69 67 
114 69 70 67 
115 69 40 70 
132 69 76 40 
136 76 78 40 
141 40 78 73 
142 78 56 73 
144 73 56 33 
150 80 81 79 
151 80 34 81 
152 79 81 13 
154 74 46 80 
155 74 33 46 
156 80 46 34 
157 13 81 12 
$EndElements
$GhostElements
21
65 2 1 1
49 3 1 1
43 3 1 1
105 2 1 1
106 2 1 1
107 2 1 1
113 2 1 1
114 2 1 1
115 2 1 1
132 2 1 1
136 2 1 1
141 2 1 1
142 2 1 1
144 2 1 1
150 3 1 1
151 3 1 1
152 3 1 1
154 3 1 1
155 3 1 1
156 3 1 1
157 3 1 1
$EndGhostElements
