$MeshFormat
4.1 0 8
$EndMeshFormat
$Entities
4 4 1 0
1 0 0 0 0 
2 1 0 0 0 
3 1 1 0 0 
4 0 1 0 0 
1 0 0 0 1 0 0 1 11 2 1 -2 
2 1 0 0 1 1 0 1 12 2 2 -3 
3 0 1 0 1 1 0 1 13 2 3 -4 
4 0 0 0 0 1 0 1 14 2 4 -1 
6 0 0 0 1 1 0 1 100 4 1 2 3 4 
$EndEntities
$PartitionedEntities
2
2
9 1
10 2
6 7 2 0
5 0 1 1 2 0 0 0 0 
6 0 2 1 2 1 0 0 0 
7 0 3 1 1 1 1 0 0 
8 0 4 1 1 0 1 0 0 
9 1 4 2 1 2 0 0.7500000000004128 0 0 
10 1 2 2 1 2 1 0.2499999999994083 0 0 
5 1 1 1 2 0 0 0 1 0 0 1 11 2 5 -6 
6 1 2 1 2 1 0 0 1 0.2499999999994083 0 1 12 2 6 -10 
7 1 2 1 1 1 0.2499999999994083 0 1 1 0 1 12 2 10 -7 
8 1 3 1 1 0 1 0 1 1 0 1 13 2 7 -8 
9 1 4 1 1 0 0.7500000000004128 0 0 1 0 1 14 2 8 -9 
10 1 4 1 2 0 0 0 0 0.7500000000004128 0 1 14 2 9 -5 
11 2 6 2 1 2 0 0.2499999999994083 0 1 0.7500000000004128 0 0 2 9 -10 
7 2 6 1 2 0 0 0 1 0.7500000000004128 0 1 100 4 5 6 10 -11 
8 2 6 1 1 0 0.2499999999994083 0 1 1 0 1 100 4 7 8 9 11 
$EndPartitionedEntities
$Nodes
13 72 3 81
0 7 0 1
3
1 1 0
0 8 0 1
4
0 1 0
0 9 0 1
27
0 0.7500000000004128 0
0 10 0 1
13
1 0.2499999999994083 0
1 6 0 1
12
1 0.1249999999997738 0
1 7 0 5
14
15
16
17
18
1 0.37499999999904 0
1 0.4999999999986718 0
1 0.6249999999990038 0
1 0.7499999999993359 0
1 0.8749999999996679 0
1 8 0 7
19
20
21
22
23
24
25
0.8750000000000254 1 0
0.7500000000004128 1 0
0.6250000000009509 1 0
0.5000000000013305 1 0
0.3750000000009979 1 0
0.2500000000006652 1 0
0.1250000000003326 1 0
1 9 0 1
26
0 0.8750000000000254 0
1 10 0 5
28
29
30
31
32
0 0.6250000000009509 0
0 0.5000000000013305 0
0 0.3750000000009979 0
0 0.2500000000006652 0
0 0.1250000000003326 0
1 11 0 7
74
80
79
59
57
49
33
0.625 0.4999999999996679 0
0.75 0.3749999999996679 0
0.875 0.3749999999993721 0
0.125 0.625000000000539 0
0.25 0.6250000000003326 0
0.375 0.5000000000003326 0
0.5 0.5 0
2 7 0 21
42
43
34
44
45
35
46
47
48
50
36
51
52
37
53
54
55
61
62
63
81
0.875 0.125 0
0.7499999999996679 0.125 0
0.75 0.25 0
0.6249999999996679 0.25 0
0.6249999999993359 0.125 0
0.4999999999993359 0.25 0
0.625 0.375 0
0.4999999999996679 0.375 0
0.4999999999990038 0.125 0
0.3749999999996679 0.3750000000003326 0
0.25 0.5000000000006652 0
0.2499999999996679 0.3750000000006652 0
0.3749999999993359 0.2500000000003326 0
0.2499999999993359 0.2500000000006652 0
0.125 0.5000000000009979 0
0.1249999999996679 0.3750000000009979 0
0.3749999999990039 0.1250000000003326 0
0.2499999999993721 0.1250000000003326 0
0.1249999999996679 0.2500000000006652 0
0.1249999999997042 0.1250000000003326 0
0.875 0.2499999999997042 0
2 8 0 21
56
38
58
60
64
65
66
39
67
68
69
70
40
71
72
41
73
75
76
77
78
0.375 0.625 0
0.25 0.75 0
0.125 0.7500000000002064 0
0.125 0.875 0
0.8750000000002064 0.8749999999996679 0
0.750000000000539 0.8749999999996679 0
0.8750000000003326 0.7499999999993359 0
0.7500000000006652 0.7499999999993359 0
0.6250000000009979 0.8749999999996679 0
0.8750000000003326 0.6249999999990038 0
0.5000000000009979 0.875 0
0.6250000000006652 0.7499999999996679 0
0.5000000000006652 0.75 0
0.6250000000003326 0.6249999999996679 0
0.7500000000003326 0.6249999999993359 0
0.75 0.4999999999993359 0
0.5000000000003326 0.625 0
0.875 0.4999999999990038 0
0.3750000000006652 0.875 0
0.2500000000003326 0.875 0
0.3750000000003326 0.75 0
2 9 0 0
$EndNodes
$Elements
5 96 11 157
1 7 1 6
11 13 14 
12 14 15 
13 15 16 
14 16 17 
15 17 18 
16 18 3 
1 8 1 8
17 3 19 
18 19 20 
19 20 21 
20 21 22 
21 22 23 
22 23 24 
23 24 25 
24 25 4 
1 9 1 2
25 4 26 
26 26 27 
2 8 2 64
65 33 56 49 
66 56 57 49 
67 56 38 57 
69 38 58 57 
70 58 59 57 
71 58 27 59 
73 38 60 58 
74 60 26 58 
75 60 4 26 
76 58 26 27 
97 3 19 18 
98 19 64 18 
99 19 20 64 
100 18 64 17 
101 20 65 64 
102 65 66 64 
103 65 39 66 
104 64 66 17 
105 20 21 65 
106 21 67 65 
107 21 22 67 
108 65 67 39 
109 17 66 16 
110 66 68 16 
111 66 39 68 
112 16 68 15 
113 22 69 67 
114 69 70 67 
115 69 40 70 
116 67 70 39 
117 40 71 70 
118 71 72 70 
119 71 41 72 
120 70 72 39 
121 40 73 71 
122 73 74 71 
123 73 33 74 
124 71 74 41 
125 39 72 68 
126 72 75 68 
127 72 41 75 
128 68 75 15 
129 22 23 69 
130 23 76 69 
131 23 24 76 
132 69 76 40 
133 24 77 76 
134 77 78 76 
135 77 38 78 
136 76 78 40 
137 24 25 77 
138 25 60 77 
139 25 4 60 
140 77 60 38 
141 40 78 73 
142 78 56 73 
143 78 38 56 
144 73 56 33 
145 15 75 14 
146 75 79 14 
147 75 41 79 
148 14 79 13 
149 41 80 79 
153 41 74 80 
2 9 2 16
43 46 33 47 
49 33 49 47 
50 49 50 47 
51 49 36 50 
68 49 57 36 
72 57 59 36 
77 36 59 53 
78 59 28 53 
79 59 27 28 
150 80 81 79 
151 80 34 81 
152 79 81 13 
154 74 46 80 
155 74 33 46 
156 80 46 34 
157 13 81 12 
$EndElements
$GhostElements
16
77 2 1 1
79 2 1 1
43 2 1 1
151 2 1 1
152 2 1 1
50 2 1 1
150 2 1 1
49 2 1 1
68 2 1 1
78 2 1 1
154 2 1 1
155 2 1 1
156 2 1 1
51 2 1 1
72 2 1 1
157 2 1 1
$EndGhostElements
