$MeshFormat
4.1 0 8
$EndMeshFormat
$Entities
4 4 1 0
1 0 0 0 0 
2 1 0 0 0 
3 1 1 0 0 
4 0 1 0 0 
1 0 0 0 1 0 0 1 11 2 1 -2 
2 1 0 0 1 1 0 1 12 2 2 -3 
3 0 1 0 1 1 0 1 13 2 3 -4 
4 0 0 0 0 1 0 1 14 2 4 -1 
6 0 0 0 1 1 0 1 100 4 1 2 3 4 
$EndEntities
$PartitionedEntities
4
4
11 1
12 2
13 3
14 4
10 13 4 0
5 0 1 1 4 0 0 0 0 
6 0 2 1 3 1 0 0 0 
7 0 3 1 1 1 1 0 0 
8 0 4 1 2 0 1 0 0 
9 2 6 3 1 2 3 0.5 0.5 0 0 
10 1 4 2 2 4 0 0.7500000000004128 0 0 
11 1 3 2 1 2 0.7500000000004128 1 0 0 
12 1 2 2 1 3 1 0.2499999999994083 0 0 
13 2 6 3 2 3 4 0.375 0.5000000000003326 0 0 
14 1 1 2 3 4 0.4999999999986718 0 0 0 
5 1 1 1 4 0 0 0 0.4999999999986718 0 0 1 11 2 5 -14 
6 1 1 1 3 0.4999999999986718 0 0 1 0 0 1 11 2 14 -6 
7 1 2 1 3 1 0 0 1 0.2499999999994083 0 1 12 2 6 -12 
8 1 2 1 1 1 0.2499999999994083 0 1 1 0 1 12 2 12 -7 
9 1 3 1 1 0.7500000000004128 1 0 1 1 0 1 13 2 7 -11 
10 1 3 1 2 0 1 0 0.7500000000004128 1 0 1 13 2 11 -8 
11 1 4 1 2 0 0.7500000000004128 0 0 1 0 1 14 2 8 -10 
12 1 4 1 4 0 0 0 0 0.7500000000004128 0 1 14 2 10 -5 
13 2 6 2 1 3 0.5 0.2499999999994083 0 1 0.5 0 0 2 9 -12 
14 2 6 2 3 4 0.3749999999990039 0 0 0.4999999999986718 0.5000000000003326 0 0 2 13 -14 
15 2 6 2 1 2 0.5 0.5 0 0.750000000000539 1 0 0 2 11 -9 
16 2 6 2 2 4 0 0.5000000000003326 0 0.375 0.7500000000004128 0 0 2 10 -13 
17 2 6 2 2 3 0.375 0.5 0 0.5 0.5000000000003326 0 0 2 13 -9 
7 2 6 1 3 0.3749999999990039 0 0 1 0.5000000000003326 0 1 100 5 6 7 -13 14 -17 
8 2 6 1 4 0 0 0 0.4999999999986718 0.7500000000004128 0 1 100 4 5 12 -14 -16 
9 2 6 1 2 0 0.5 0 0.750000000000539 1 0 1 100 5 10 11 -15 16 17 
10 2 6 1 1 0.5 0.2499999999994083 0 1 1 0 1 100 4 8 9 13 15 
$EndPartitionedEntities
$Nodes
19 64 2 81
0 6 0 1
2
1 0 0
0 9 0 1
33
0.5 0.5 0
0 12 0 1
13
1 0.2499999999994083 0
0 13 0 1
49
0.375 0.5000000000003326 0
0 14 0 1
8
0.4999999999986718 0 0
1 5 0 3
5
6
7
0.1249999999997738 0 0
0.2499999999994083 0 0
0.37499999999904 0 0
1 6 0 3
9
10
11
0.6249999999990038 0 0
0.7499999999993359 0 0
0.8749999999996679 0 0
1 7 0 1
12
1 0.1249999999997738 0
1 8 0 5
14
15
16
17
18
1 0.37499999999904 0
1 0.4999999999986718 0
1 0.6249999999990038 0
1 0.7499999999993359 0
1 0.8749999999996679 0
1 13 0 3
74
80
79
0.625 0.4999999999996679 0
0.75 0.3749999999996679 0
0.875 0.3749999999993721 0
1 14 0 3
50
52
55
0.3749999999996679 0.3750000000003326 0
0.3749999999993359 0.2500000000003326 0
0.3749999999990039 0.1250000000003326 0
1 15 0 5
73
65
67
70
40
0.5000000000003326 0.625 0
0.750000000000539 0.8749999999996679 0
0.6250000000009979 0.8749999999996679 0
0.6250000000006652 0.7499999999996679 0
0.5000000000006652 0.75 0
1 16 0 2
57
59
0.25 0.6250000000003326 0
0.125 0.625000000000539 0
1 17 0 0
2 7 0 10
42
43
34
44
45
35
46
47
48
81
0.875 0.125 0
0.7499999999996679 0.125 0
0.75 0.25 0
0.6249999999996679 0.25 0
0.6249999999993359 0.125 0
0.4999999999993359 0.25 0
0.625 0.375 0
0.4999999999996679 0.375 0
0.4999999999990038 0.125 0
0.875 0.2499999999997042 0
2 8 0 8
36
51
37
53
54
61
62
63
0.25 0.5000000000006652 0
0.2499999999996679 0.3750000000006652 0
0.2499999999993359 0.2500000000006652 0
0.125 0.5000000000009979 0
0.1249999999996679 0.3750000000009979 0
0.2499999999993721 0.1250000000003326 0
0.1249999999996679 0.2500000000006652 0
0.1249999999997042 0.1250000000003326 0
2 9 0 8
56
38
58
60
69
76
77
78
0.375 0.625 0
0.25 0.75 0
0.125 0.7500000000002064 0
0.125 0.875 0
0.5000000000009979 0.875 0
0.3750000000006652 0.875 0
0.2500000000003326 0.875 0
0.3750000000003326 0.75 0
2 10 0 8
64
66
39
68
71
72
41
75
0.8750000000002064 0.8749999999996679 0
0.8750000000003326 0.7499999999993359 0
0.7500000000006652 0.7499999999993359 0
0.8750000000003326 0.6249999999990038 0
0.6250000000003326 0.6249999999996679 0
0.7500000000003326 0.6249999999993359 0
0.75 0.4999999999993359 0
0.875 0.4999999999990038 0
2 13 0 0
$EndNodes
$Elements
12 73 5 336
0 6 15 1
162 2 
0 9 15 1
331 33 
0 12 15 1
334 13 
0 13 15 1
335 49 
0 14 15 1
336 8 
1 6 1 4
5 8 9 
6 9 10 
7 10 11 
8 11 2 
1 7 1 2
9 2 12 
10 12 13 
1 13 1 4
313 74 80 
318 80 79 
319 33 74 
327 79 13 
1 14 1 4
314 50 52 
320 49 50 
322 55 8 
324 52 55 
1 17 1 1
328 49 33 
2 7 2 33
33 2 42 11 
34 42 43 11 
35 42 34 43 
36 11 43 10 
37 34 44 43 
38 44 45 43 
39 44 35 45 
40 43 45 10 
41 34 46 44 
42 46 47 44 
43 46 33 47 
44 44 47 35 
45 10 45 9 
46 45 48 9 
47 45 35 48 
48 9 48 8 
49 33 49 47 
50 49 50 47 
52 47 50 35 
56 50 52 35 
61 35 52 48 
62 52 55 48 
64 48 55 8 
150 80 81 79 
151 80 34 81 
152 79 81 13 
154 74 46 80 
155 74 33 46 
156 80 46 34 
157 13 81 12 
158 81 42 12 
159 81 34 42 
160 12 42 2 
2 13 2 20
51 49 36 50 
53 36 51 50 
54 51 52 50 
55 51 37 52 
63 52 37 55 
65 33 56 49 
66 56 57 49 
68 49 57 36 
81 8 55 7 
82 55 61 7 
83 55 37 61 
122 73 74 71 
123 73 33 74 
124 71 74 41 
144 73 56 33 
146 75 79 14 
147 75 41 79 
148 14 79 13 
149 41 80 79 
153 41 74 80 
$EndElements
$GhostElements
20
55 4 1 3
51 4 1 3
54 4 1 3
83 4 1 3
81 4 1 3
63 4 1 3
65 2 1 3
68 4 1 3
66 2 1 3
82 4 1 3
53 4 1 3
122 1 1 3
123 1 1 3
124 1 1 3
144 2 1 3
146 1 1 3
147 1 1 3
148 1 1 3
149 1 1 3
153 1 1 3
$EndGhostElements
