$MeshFormat
4.1 0 8
$EndMeshFormat
$Entities
4 4 1 0
1 0 0 0 0 
2 1 0 0 0 
3 1 1 0 0 
4 0 1 0 0 
1 0 0 0 1 0 0 1 11 2 1 -2 
2 1 0 0 1 1 0 1 12 2 2 -3 
3 0 1 0 1 1 0 1 13 2 3 -4 
4 0 0 0 0 1 0 1 14 2 4 -1 
6 0 0 0 1 1 0 1 100 4 1 2 3 4 
$EndEntities
$PartitionedEntities
4
4
11 1
12 2
13 3
14 4
10 13 4 0
5 0 1 1 4 0 0 0 0 
6 0 2 1 3 1 0 0 0 
7 0 3 1 1 1 1 0 0 
8 0 4 1 2 0 1 0 0 
9 2 6 3 1 2 3 0.5 0.5 0 0 
10 1 4 2 2 4 0 0.7500000000004128 0 0 
11 1 3 2 1 2 0.7500000000004128 1 0 0 
12 1 2 2 1 3 1 0.2499999999994083 0 0 
13 2 6 3 2 3 4 0.375 0.5000000000003326 0 0 
14 1 1 2 3 4 0.4999999999986718 0 0 0 
5 1 1 1 4 0 0 0 0.4999999999986718 0 0 1 11 2 5 -14 
6 1 1 1 3 0.4999999999986718 0 0 1 0 0 1 11 2 14 -6 
7 1 2 1 3 1 0 0 1 0.2499999999994083 0 1 12 2 6 -12 
8 1 2 1 1 1 0.2499999999994083 0 1 1 0 1 12 2 12 -7 
9 1 3 1 1 0.7500000000004128 1 0 1 1 0 1 13 2 7 -11 
10 1 3 1 2 0 1 0 0.7500000000004128 1 0 1 13 2 11 -8 
11 1 4 1 2 0 0.7500000000004128 0 0 1 0 1 14 2 8 -10 
12 1 4 1 4 0 0 0 0 0.7500000000004128 0 1 14 2 10 -5 
13 2 6 2 1 3 0.5 0.2499999999994083 0 1 0.5 0 0 2 9 -12 
14 2 6 2 3 4 0.3749999999990039 0 0 0.4999999999986718 0.5000000000003326 0 0 2 13 -14 
15 2 6 2 1 2 0.5 0.5 0 0.750000000000539 1 0 0 2 11 -9 
16 2 6 2 2 4 0 0.5000000000003326 0 0.375 0.7500000000004128 0 0 2 10 -13 
17 2 6 2 2 3 0.375 0.5 0 0.5 0.5000000000003326 0 0 2 13 -9 
7 2 6 1 3 0.3749999999990039 0 0 1 0.5000000000003326 0 1 100 5 6 7 -13 14 -17 
8 2 6 1 4 0 0 0 0.4999999999986718 0.7500000000004128 0 1 100 4 5 12 -14 -16 
9 2 6 1 2 0 0.5 0 0.750000000000539 1 0 1 100 5 10 11 -15 16 17 
10 2 6 1 1 0.5 0.2499999999994083 0 1 1 0 1 100 4 8 9 13 15 
$EndPartitionedEntities
$Nodes
19 64 4 81
0 8 0 1
4
0 1 0
0 9 0 1
33
0.5 0.5 0
0 10 0 1
27
0 0.7500000000004128 0
0 11 0 1
20
0.7500000000004128 1 0
0 13 0 1
49
0.375 0.5000000000003326 0
1 9 0 1
19
0.8750000000000254 1 0
1 10 0 5
21
22
23
24
25
0.6250000000009509 1 0
0.5000000000013305 1 0
0.3750000000009979 1 0
0.2500000000006652 1 0
0.1250000000003326 1 0
1 11 0 1
26
0 0.8750000000000254 0
1 12 0 5
28
29
30
31
32
0 0.6250000000009509 0
0 0.5000000000013305 0
0 0.3750000000009979 0
0 0.2500000000006652 0
0 0.1250000000003326 0
1 13 0 3
74
80
79
0.625 0.4999999999996679 0
0.75 0.3749999999996679 0
0.875 0.3749999999993721 0
1 14 0 3
50
52
55
0.3749999999996679 0.3750000000003326 0
0.3749999999993359 0.2500000000003326 0
0.3749999999990039 0.1250000000003326 0
1 15 0 5
73
65
67
70
40
0.5000000000003326 0.625 0
0.750000000000539 0.8749999999996679 0
0.6250000000009979 0.8749999999996679 0
0.6250000000006652 0.7499999999996679 0
0.5000000000006652 0.75 0
1 16 0 2
57
59
0.25 0.6250000000003326 0
0.125 0.625000000000539 0
1 17 0 0
2 7 0 10
42
43
34
44
45
35
46
47
48
81
0.875 0.125 0
0.7499999999996679 0.125 0
0.75 0.25 0
0.6249999999996679 0.25 0
0.6249999999993359 0.125 0
0.4999999999993359 0.25 0
0.625 0.375 0
0.4999999999996679 0.375 0
0.4999999999990038 0.125 0
0.875 0.2499999999997042 0
2 8 0 8
36
51
37
53
54
61
62
63
0.25 0.5000000000006652 0
0.2499999999996679 0.3750000000006652 0
0.2499999999993359 0.2500000000006652 0
0.125 0.5000000000009979 0
0.1249999999996679 0.3750000000009979 0
0.2499999999993721 0.1250000000003326 0
0.1249999999996679 0.2500000000006652 0
0.1249999999997042 0.1250000000003326 0
2 9 0 8
56
38
58
60
69
76
77
78
0.375 0.625 0
0.25 0.75 0
0.125 0.7500000000002064 0
0.125 0.875 0
0.5000000000009979 0.875 0
0.3750000000006652 0.875 0
0.2500000000003326 0.875 0
0.3750000000003326 0.75 0
2 10 0 8
64
66
39
68
71
72
41
75
0.8750000000002064 0.8749999999996679 0
0.8750000000003326 0.7499999999993359 0
0.7500000000006652 0.7499999999993359 0
0.8750000000003326 0.6249999999990038 0
0.6250000000003326 0.6249999999996679 0
0.7500000000003326 0.6249999999993359 0
0.75 0.4999999999993359 0
0.875 0.4999999999990038 0
2 12 0 0
$EndNodes
$Elements
12 77 19 335
0 8 15 1
164 4 
0 9 15 1
331 33 
0 10 15 1
332 27 
0 11 15 1
333 20 
0 13 15 1
335 49 
1 10 1 6
19 20 21 
20 21 22 
21 22 23 
22 23 24 
23 24 25 
24 25 4 
1 11 1 2
25 4 26 
26 26 27 
1 15 1 6
315 73 33 
317 20 65 
321 67 70 
323 65 67 
326 70 40 
329 40 73 
1 16 1 3
316 57 49 
325 59 57 
330 27 59 
1 17 1 1
328 49 33 
2 9 2 32
65 33 56 49 
66 56 57 49 
67 56 38 57 
69 38 58 57 
70 58 59 57 
71 58 27 59 
73 38 60 58 
74 60 26 58 
75 60 4 26 
76 58 26 27 
105 20 21 65 
106 21 67 65 
107 21 22 67 
113 22 69 67 
114 69 70 67 
115 69 40 70 
129 22 23 69 
130 23 76 69 
131 23 24 76 
132 69 76 40 
133 24 77 76 
134 77 78 76 
135 77 38 78 
136 76 78 40 
137 24 25 77 
138 25 60 77 
139 25 4 60 
140 77 60 38 
141 40 78 73 
142 78 56 73 
143 78 38 56 
144 73 56 33 
2 12 2 22
43 46 33 47 
49 33 49 47 
50 49 50 47 
51 49 36 50 
68 49 57 36 
72 57 59 36 
77 36 59 53 
78 59 28 53 
79 59 27 28 
99 19 20 64 
101 20 65 64 
102 65 66 64 
103 65 39 66 
108 65 67 39 
116 67 70 39 
117 40 71 70 
118 71 72 70 
120 70 72 39 
121 40 73 71 
122 73 74 71 
123 73 33 74 
155 74 33 46 
$EndElements
$GhostElements
22
51 4 1 2
72 4 1 2
68 4 1 2
49 3 1 2
50 3 1 2
43 3 1 2
77 4 1 2
78 4 1 2
79 4 1 2
99 1 1 2
101 1 1 2
102 1 1 2
103 1 1 2
108 1 1 2
116 1 1 2
117 1 1 2
118 1 1 2
120 1 1 2
121 1 1 2
122 1 1 2
123 1 1 2
155 3 1 2
$EndGhostElements
