$MeshFormat
4.1 0 8
$EndMeshFormat
$Entities
4 4 1 0
1 0 0 0 0 
2 1 0 0 0 
3 1 1 0 0 
4 0 1 0 0 
1 0 0 0 1 0 0 1 11 2 1 -2 
2 1 0 0 1 1 0 1 12 2 2 -3 
3 0 1 0 1 1 0 1 13 2 3 -4 
4 0 0 0 0 1 0 1 14 2 4 -1 
6 0 0 0 1 1 0 1 100 4 1 2 3 4 
$EndEntities
$PartitionedEntities
2
2
9 1
10 2
6 7 2 0
5 0 1 1 2 0 0 0 0 
6 0 2 1 2 1 0 0 0 
7 0 3 1 1 1 1 0 0 
8 0 4 1 1 0 1 0 0 
9 1 4 2 1 2 0 0.7500000000004128 0 0 
10 1 2 2 1 2 1 0.2499999999994083 0 0 
5 1 1 1 2 0 0 0 1 0 0 1 11 2 5 -6 
6 1 2 1 2 1 0 0 1 0.2499999999994083 0 1 12 2 6 -10 
7 1 2 1 1 1 0.2499999999994083 0 1 1 0 1 12 2 10 -7 
8 1 3 1 1 0 1 0 1 1 0 1 13 2 7 -8 
9 1 4 1 1 0 0.7500000000004128 0 0 1 0 1 14 2 8 -9 
10 1 4 1 2 0 0 0 0 0.7500000000004128 0 1 14 2 9 -5 
11 2 6 2 1 2 0 0.2499999999994083 0 1 0.7500000000004128 0 0 2 9 -10 
7 2 6 1 2 0 0 0 1 0.7500000000004128 0 1 100 4 5 6 10 -11 
8 2 6 1 1 0 0.2499999999994083 0 1 1 0 1 100 4 7 8 9 11 
$EndPartitionedEntities
$Nodes
13 72 1 81
0 5 0 1
1
0 0 0
0 6 0 1
2
1 0 0
0 9 0 1
27
0 0.7500000000004128 0
0 10 0 1
13
1 0.2499999999994083 0
1 5 0 7
5
6
7
8
9
10
11
0.1249999999997738 0 0
0.2499999999994083 0 0
0.37499999999904 0 0
0.4999999999986718 0 0
0.6249999999990038 0 0
0.7499999999993359 0 0
0.8749999999996679 0 0
1 6 0 1
12
1 0.1249999999997738 0
1 7 0 5
14
15
16
17
18
1 0.37499999999904 0
1 0.4999999999986718 0
1 0.6249999999990038 0
1 0.7499999999993359 0
1 0.8749999999996679 0
1 9 0 1
26
0 0.8750000000000254 0
1 10 0 5
28
29
30
31
32
0 0.6250000000009509 0
0 0.5000000000013305 0
0 0.3750000000009979 0
0 0.2500000000006652 0
0 0.1250000000003326 0
1 11 0 7
74
80
79
59
57
49
33
0.625 0.4999999999996679 0
0.75 0.3749999999996679 0
0.875 0.3749999999993721 0
0.125 0.625000000000539 0
0.25 0.6250000000003326 0
0.375 0.5000000000003326 0
0.5 0.5 0
2 7 0 21
42
43
34
44
45
35
46
47
48
50
36
51
52
37
53
54
55
61
62
63
81
0.875 0.125 0
0.7499999999996679 0.125 0
0.75 0.25 0
0.6249999999996679 0.25 0
0.6249999999993359 0.125 0
0.4999999999993359 0.25 0
0.625 0.375 0
0.4999999999996679 0.375 0
0.4999999999990038 0.125 0
0.3749999999996679 0.3750000000003326 0
0.25 0.5000000000006652 0
0.2499999999996679 0.3750000000006652 0
0.3749999999993359 0.2500000000003326 0
0.2499999999993359 0.2500000000006652 0
0.125 0.5000000000009979 0
0.1249999999996679 0.3750000000009979 0
0.3749999999990039 0.1250000000003326 0
0.2499999999993721 0.1250000000003326 0
0.1249999999996679 0.2500000000006652 0
0.1249999999997042 0.1250000000003326 0
0.875 0.2499999999997042 0
2 8 0 21
56
38
58
60
64
65
66
39
67
68
69
70
40
71
72
41
73
75
76
77
78
0.375 0.625 0
0.25 0.75 0
0.125 0.7500000000002064 0
0.125 0.875 0
0.8750000000002064 0.8749999999996679 0
0.750000000000539 0.8749999999996679 0
0.8750000000003326 0.7499999999993359 0
0.7500000000006652 0.7499999999993359 0
0.6250000000009979 0.8749999999996679 0
0.8750000000003326 0.6249999999990038 0
0.5000000000009979 0.875 0
0.6250000000006652 0.7499999999996679 0
0.5000000000006652 0.75 0
0.6250000000003326 0.6249999999996679 0
0.7500000000003326 0.6249999999993359 0
0.75 0.4999999999993359 0
0.5000000000003326 0.625 0
0.875 0.4999999999990038 0
0.3750000000006652 0.875 0
0.2500000000003326 0.875 0
0.3750000000003326 0.75 0
2 10 0 0
$EndNodes
$Elements
5 96 1 160
1 5 1 8
1 1 5 
2 5 6 
3 6 7 
4 7 8 
5 8 9 
6 9 10 
7 10 11 
8 11 2 
1 6 1 2
9 2 12 
10 12 13 
1 10 1 6
27 27 28 
28 28 29 
29 29 30 
30 30 31 
31 31 32 
32 32 1 
2 7 2 64
33 2 42 11 
34 42 43 11 
35 42 34 43 
36 11 43 10 
37 34 44 43 
38 44 45 43 
39 44 35 45 
40 43 45 10 
41 34 46 44 
42 46 47 44 
43 46 33 47 
44 44 47 35 
45 10 45 9 
46 45 48 9 
47 45 35 48 
48 9 48 8 
49 33 49 47 
50 49 50 47 
51 49 36 50 
52 47 50 35 
53 36 51 50 
54 51 52 50 
55 51 37 52 
56 50 52 35 
57 36 53 51 
58 53 54 51 
59 53 29 54 
60 51 54 37 
61 35 52 48 
62 52 55 48 
63 52 37 55 
64 48 55 8 
68 49 57 36 
72 57 59 36 
77 36 59 53 
78 59 28 53 
79 59 27 28 
80 53 28 29 
81 8 55 7 
82 55 61 7 
83 55 37 61 
84 7 61 6 
85 37 62 61 
86 62 63 61 
87 62 31 63 
88 61 63 6 
89 37 54 62 
90 54 30 62 
91 54 29 30 
92 62 30 31 
93 6 63 5 
94 63 32 5 
95 63 31 32 
96 5 32 1 
150 80 81 79 
151 80 34 81 
152 79 81 13 
154 74 46 80 
155 74 33 46 
156 80 46 34 
157 13 81 12 
158 81 42 12 
159 81 34 42 
160 12 42 2 
2 10 2 16
65 33 56 49 
66 56 57 49 
67 56 38 57 
69 38 58 57 
70 58 59 57 
71 58 27 59 
76 58 26 27 
122 73 74 71 
123 73 33 74 
124 71 74 41 
144 73 56 33 
146 75 79 14 
147 75 41 79 
148 14 79 13 
149 41 80 79 
153 41 74 80 
$EndElements
$GhostElements
16
76 1 1 2
66 1 1 2
67 1 1 2
148 1 1 2
65 1 1 2
70 1 1 2
69 1 1 2
144 1 1 2
122 1 1 2
123 1 1 2
124 1 1 2
71 1 1 2
146 1 1 2
147 1 1 2
149 1 1 2
153 1 1 2
$EndGhostElements
