$MeshFormat
4.1 0 8
$EndMeshFormat
$Entities
4 4 1 0
1 0 0 0 0 
2 1 0 0 0 
3 1 1 0 0 
4 0 1 0 0 
1 0 0 0 0 0 0 1 11 2 1 -2 
2 0 0 0 0 0 0 1 12 2 2 -3 
3 0 0 0 0 0 0 1 13 2 3 -4 
4 0 0 0 0 0 0 1 14 2 4 -1 
6 0 0 0 0 0 0 1 100 4 1 2 3 4 
$EndEntities
$PartitionedEntities
2
2
9 1
10 2
6 7 2 0
5 0 1 1 1 0 0 0 0 
6 0 2 1 1 1 0 0 0 
7 0 3 1 2 1 1 0 0 
8 0 4 1 1 0 1 0 0 
9 1 3 2 1 2 0.5000000000013304 1 0 0 
10 1 2 2 1 2 1 0.4999999999986718 0 0 
5 1 1 1 1 0 0 0 1 0 0 1 11 2 5 -6 
6 1 2 1 1 1 0 0 1 0.4999999999986718 0 1 12 2 6 -10 
7 1 2 1 2 1 0.4999999999986718 0 1 1 0 1 12 2 10 -7 
8 1 3 1 2 0.5000000000013304 1 0 1 1 0 1 13 2 7 -9 
9 1 3 1 1 0 1 0 0.5000000000013304 1 0 1 13 2 9 -8 
10 1 4 1 1 0 0 0 0 1 0 1 14 2 8 -5 
11 2 6 2 1 2 0 0 0 0 0 0 0 2 10 -9 
7 2 6 1 1 0 0 0 1 1 0 1 100 5 5 6 9 10 11 
8 2 6 1 2 0.25 0.25 0 1 1 0 1 100 3 7 8 -11 
$EndPartitionedEntities
$Nodes
14 13 1 13
0 5 0 1
1
0 0 0
0 6 0 1
2
1 0 0
0 7 0 1
3
1 1 0
0 8 0 1
4
0 1 0
0 9 0 1
7
0.5000000000013304 1 0
0 10 0 1
6
1 0.4999999999986718 0
1 5 0 1
5
0.4999999999986718 0 0
1 6 0 0
1 9 0 0
1 10 0 1
8
0 0.5000000000013304 0
1 11 0 3
12
10
11
0.25 0.75 0
0.75 0.25 0
0.25 0.25 0
2 7 0 0
2 8 0 2
9
13
0.5 0.5 0
0.75 0.75 0
2 9 0 0
$EndNodes
$Elements
6 22 1 24
1 5 1 2
1 1 5 
2 5 2 
1 6 1 1
3 2 6 
1 9 1 1
6 7 4 
1 10 1 2
7 4 8 
8 8 1 
2 7 2 8
9 1 5 11 
10 5 10 11 
11 5 2 10 
13 4 8 12 
14 8 11 12 
15 8 1 11 
17 2 6 10 
23 7 4 12 
2 9 2 8
21 3 7 13 
22 7 12 13 
24 13 12 9 
12 11 10 9 
16 12 11 9 
18 6 13 10 
19 6 3 13 
20 10 13 9 
$EndElements
$GhostElements
8
21 2 1 1
22 2 1 1
24 2 1 1
12 2 1 1
16 2 1 1
18 2 1 1
19 2 1 1
20 2 1 1
$EndGhostElements
