$MeshFormat
4.1 0 8
$EndMeshFormat
$Entities
4 4 1 0
1 0 0 0 0 
2 1 0 0 0 
3 1 1 0 0 
4 0 1 0 0 
1 0 0 0 1 0 0 1 11 2 1 -2 
2 1 0 0 1 1 0 1 12 2 2 -3 
3 0 1 0 1 1 0 1 13 2 3 -4 
4 0 0 0 0 1 0 1 14 2 4 -1 
6 0 0 0 1 1 0 1 100 4 1 2 3 4 
$EndEntities
$PartitionedEntities
4
4
11 1
12 2
13 3
14 4
10 13 4 0
5 0 1 1 4 0 0 0 0 
6 0 2 1 3 1 0 0 0 
7 0 3 1 1 1 1 0 0 
8 0 4 1 2 0 1 0 0 
9 2 6 3 1 2 3 0.5 0.5 0 0 
10 1 4 2 2 4 0 0.7500000000004128 0 0 
11 1 3 2 1 2 0.7500000000004128 1 0 0 
12 1 2 2 1 3 1 0.2499999999994083 0 0 
13 2 6 3 2 3 4 0.375 0.5000000000003326 0 0 
14 1 1 2 3 4 0.4999999999986718 0 0 0 
5 1 1 1 4 0 0 0 0.4999999999986718 0 0 1 11 2 5 -14 
6 1 1 1 3 0.4999999999986718 0 0 1 0 0 1 11 2 14 -6 
7 1 2 1 3 1 0 0 1 0.2499999999994083 0 1 12 2 6 -12 
8 1 2 1 1 1 0.2499999999994083 0 1 1 0 1 12 2 12 -7 
9 1 3 1 1 0.7500000000004128 1 0 1 1 0 1 13 2 7 -11 
10 1 3 1 2 0 1 0 0.7500000000004128 1 0 1 13 2 11 -8 
11 1 4 1 2 0 0.7500000000004128 0 0 1 0 1 14 2 8 -10 
12 1 4 1 4 0 0 0 0 0.7500000000004128 0 1 14 2 10 -5 
13 2 6 2 1 3 0.5 0.2499999999994083 0 1 0.5 0 0 2 9 -12 
14 2 6 2 3 4 0.3749999999990039 0 0 0.4999999999986718 0.5000000000003326 0 0 2 13 -14 
15 2 6 2 1 2 0.5 0.5 0 0.750000000000539 1 0 0 2 11 -9 
16 2 6 2 2 4 0 0.5000000000003326 0 0.375 0.7500000000004128 0 0 2 10 -13 
17 2 6 2 2 3 0.375 0.5 0 0.5 0.5000000000003326 0 0 2 13 -9 
7 2 6 1 3 0.3749999999990039 0 0 1 0.5000000000003326 0 1 100 5 6 7 -13 14 -17 
8 2 6 1 4 0 0 0 0.4999999999986718 0.7500000000004128 0 1 100 4 5 12 -14 -16 
9 2 6 1 2 0 0.5 0 0.750000000000539 1 0 1 100 5 10 11 -15 16 17 
10 2 6 1 1 0.5 0.2499999999994083 0 1 1 0 1 100 4 8 9 13 15 
$EndPartitionedEntities
$Nodes
15 48 1 81
0 5 0 1
1
0 0 0
0 9 0 1
33
0.5 0.5 0
0 10 0 1
27
0 0.7500000000004128 0
0 13 0 1
49
0.375 0.5000000000003326 0
0 14 0 1
8
0.4999999999986718 0 0
1 5 0 3
5
6
7
0.1249999999997738 0 0
0.2499999999994083 0 0
0.37499999999904 0 0
1 6 0 3
9
10
11
0.6249999999990038 0 0
0.7499999999993359 0 0
0.8749999999996679 0 0
1 11 0 1
26
0 0.8750000000000254 0
1 12 0 5
28
29
30
31
32
0 0.6250000000009509 0
0 0.5000000000013305 0
0 0.3750000000009979 0
0 0.2500000000006652 0
0 0.1250000000003326 0
1 14 0 3
50
52
55
0.3749999999996679 0.3750000000003326 0
0.3749999999993359 0.2500000000003326 0
0.3749999999990039 0.1250000000003326 0
1 16 0 2
57
59
0.25 0.6250000000003326 0
0.125 0.625000000000539 0
2 7 0 10
42
43
34
44
45
35
46
47
48
81
0.875 0.125 0
0.7499999999996679 0.125 0
0.75 0.25 0
0.6249999999996679 0.25 0
0.6249999999993359 0.125 0
0.4999999999993359 0.25 0
0.625 0.375 0
0.4999999999996679 0.375 0
0.4999999999990038 0.125 0
0.875 0.2499999999997042 0
2 8 0 8
36
51
37
53
54
61
62
63
0.25 0.5000000000006652 0
0.2499999999996679 0.3750000000006652 0
0.2499999999993359 0.2500000000006652 0
0.125 0.5000000000009979 0
0.1249999999996679 0.3750000000009979 0
0.2499999999993721 0.1250000000003326 0
0.1249999999996679 0.2500000000006652 0
0.1249999999997042 0.1250000000003326 0
2 9 0 8
56
38
58
60
69
76
77
78
0.375 0.625 0
0.25 0.75 0
0.125 0.7500000000002064 0
0.125 0.875 0
0.5000000000009979 0.875 0
0.3750000000006652 0.875 0
0.2500000000003326 0.875 0
0.3750000000003326 0.75 0
2 14 0 0
$EndNodes
$Elements
10 67 1 336
0 5 15 1
161 1 
0 10 15 1
332 27 
0 13 15 1
335 49 
0 14 15 1
336 8 
1 5 1 4
1 1 5 
2 5 6 
3 6 7 
4 7 8 
1 12 1 6
27 27 28 
28 28 29 
29 29 30 
30 30 31 
31 31 32 
32 32 1 
1 14 1 4
314 50 52 
320 49 50 
322 55 8 
324 52 55 
1 16 1 3
316 57 49 
325 59 57 
330 27 59 
2 8 2 31
51 49 36 50 
53 36 51 50 
54 51 52 50 
55 51 37 52 
57 36 53 51 
58 53 54 51 
59 53 29 54 
60 51 54 37 
63 52 37 55 
68 49 57 36 
72 57 59 36 
77 36 59 53 
78 59 28 53 
79 59 27 28 
80 53 28 29 
81 8 55 7 
82 55 61 7 
83 55 37 61 
84 7 61 6 
85 37 62 61 
86 62 63 61 
87 62 31 63 
88 61 63 6 
89 37 54 62 
90 54 30 62 
91 54 29 30 
92 62 30 31 
93 6 63 5 
94 63 32 5 
95 63 31 32 
96 5 32 1 
2 14 2 15
48 9 48 8 
49 33 49 47 
50 49 50 47 
52 47 50 35 
56 50 52 35 
61 35 52 48 
62 52 55 48 
64 48 55 8 
65 33 56 49 
66 56 57 49 
67 56 38 57 
69 38 58 57 
70 58 59 57 
71 58 27 59 
76 58 26 27 
$EndElements
$GhostElements
15
56 3 1 4
52 3 1 4
70 2 1 4
71 2 1 4
64 3 1 4
65 2 1 4
62 3 1 4
67 2 1 4
69 2 1 4
61 3 1 4
66 2 1 4
48 3 1 4
49 3 1 4
50 3 1 4
76 2 1 4
$EndGhostElements
