$MeshFormat
4.1 0 8
$EndMeshFormat
$PhysicalNames
2
2 100 "Left"
2 200 "Right"
$EndPhysicalNames
$Entities
6 7 2 0
1 0 0 0 0 
2 1 0 0 0 
3 1 1 0 0 
4 0 1 0 0 
5 2 0 0 0 
6 2 1 0 0 
1 0 0 0 0 0 0 0 2 1 -2 
2 0 0 0 0 0 0 0 2 2 -3 
3 0 0 0 0 0 0 0 2 3 -4 
4 0 0 0 0 0 0 0 2 4 -1 
5 0 0 0 0 0 0 0 2 2 -5 
6 0 0 0 0 0 0 0 2 5 -6 
7 0 0 0 0 0 0 0 2 6 -3 
1 0 0 0 0 0 0 1 100 4 1 2 3 4 
2 0 0 0 0 0 0 1 200 4 5 6 7 -2 
$EndEntities
$PartitionedEntities
2
2
7 1
8 2
0 2 4 0
8 2 2 2 1 2 0 0 0 0 0 0 0 0 
9 2 1 2 1 2 0 0 0 0 0 0 0 0 
3 2 1 1 2 0 0 0 1 1 0 1 100 1 -9 
4 2 1 1 1 0.9 0.4 0 1 1 0 1 100 1 9 
5 2 2 1 1 1 0 0 2 1 0 1 200 1 8 
6 2 2 1 2 1 0 0 1.150249294339321 0.35 0 1 200 1 -8 
$EndPartitionedEntities
$Nodes
7 1001 1 1001
1 8 0 11
976
901
879
871
900
35
36
883
882
948
87
1.126495766035927 0.1781394473282699 0
1.083974596215562 0.1824573519457051 0
1.034157932237862 0.275 0
1.047540889183242 0.3172940119650965 0
1.047577479821665 0.2240761685746961 0
1 0.35 0
1 0.4 0
1.122900188550633 0.04254350174487576 0
1.12749842767914 0.09052181425901568 0
1.150249294339321 0.1343537005720948 0
1.15 0 0
1 9 0 13
258
257
223
228
213
227
185
194
205
49
217
204
311
0.9567905049450806 0.5760320399845857 0
0.9570380463989128 0.6262843313391506 0
0.9523308222758422 0.7755653143404657 0
0.9601698491656763 0.8279237746757162 0
0.9523235419178089 0.4290187136245558 0
0.9666551565157939 0.475 0
0.9524591108167564 0.682705988034904 0
0.9658420677621358 0.725 0
0.9204556716363043 0.9545887732382461 0
0.9 1 0
0.952332676247073 0.5219796403650591 0
0.9231359713964774 0.8967568704146378 0
0.9312529458225653 0.8530864584127114 0
2 3 0 479
187
186
188
190
189
191
192
34
193
196
195
197
198
199
201
200
202
203
206
208
207
209
210
211
212
33
214
30
29
215
216
218
219
221
220
222
225
224
226
229
230
231
232
233
234
235
236
182
173
237
238
239
27
26
240
164
241
242
243
245
244
246
247
166
165
248
179
178
249
250
251
252
253
254
255
256
24
10
259
260
262
261
264
263
183
265
184
266
267
268
270
269
271
272
273
275
274
276
277
169
278
177
279
9
53
280
281
282
284
283
285
286
287
163
288
289
180
181
290
291
292
293
25
28
32
31
294
295
296
298
297
299
300
175
301
168
167
302
303
176
305
306
174
170
307
51
50
309
310
171
172
52
312
2
314
316
315
317
319
318
79
321
320
322
323
324
325
327
326
328
330
329
331
332
334
333
335
336
337
338
339
340
342
341
343
345
344
346
348
347
349
351
350
352
80
353
354
355
356
357
358
359
360
361
362
363
364
365
366
367
368
369
370
372
371
373
374
375
376
377
378
379
380
381
382
15
384
383
385
386
388
387
389
390
392
391
71
70
393
394
396
395
397
398
400
399
401
403
402
404
69
405
406
408
407
409
411
410
412
413
414
415
416
418
417
419
421
420
422
423
424
425
426
427
428
429
431
430
432
434
433
435
22
436
437
438
439
440
441
442
444
443
445
447
446
448
449
451
450
452
453
454
455
456
458
457
459
460
461
462
463
465
464
466
467
468
469
471
470
472
473
474
475
477
476
479
478
480
482
481
54
483
484
486
485
488
487
489
490
491
492
493
494
495
496
21
23
68
72
497
498
499
500
501
503
502
504
505
506
74
73
507
508
510
509
511
512
513
515
514
516
518
517
519
521
520
522
523
524
525
526
527
20
63
62
65
64
528
529
530
531
532
17
16
533
534
18
535
60
59
536
537
538
14
13
539
540
542
541
543
544
545
546
547
548
549
550
551
552
553
554
555
556
557
558
559
560
561
76
75
82
81
562
563
564
565
78
84
83
566
567
568
19
67
569
570
571
57
56
572
574
573
575
55
576
577
578
579
580
581
582
583
584
585
12
586
77
587
66
11
61
58
588
4
589
1
590
591
592
0.8995220148268555 0.6912147583890562 0
0.9249203205360866 0.7315775338411219 0
0.7749999999999957 0.9093266739736614 0
0.7274026143976962 0.9003677968991808 0
0.7267501711977524 0.9464706644106191 0
0.7751275634983781 0.9597094246666246 0
0.9566592974282583 0.3226787073898404 0
1 0.3 0
0.9518641299987876 0.2658449089928192 0
0.825 0.9566987298107781 0
0.8249420237432158 0.9063972791991973 0
0.8738863920597681 0.9128470182176518 0
0.8742904335926673 0.9655346905386171 0
0.874999999999998 0.649519052838331 0
0.9091290431963532 0.6028477457144521 0
0.8516007337814886 0.6054910965812097 0
0.672835511998082 0.9550994813476893 0
0.687738390891862 0.9063904740211495 0
0.8750000000000004 0.3031088913245554 0
0.8522329099369259 0.3470084679281475 0
0.9092857687976972 0.3481297030563452 0
0.8753705607323583 0.3900707019114114 0
0.8754753594925866 0.5619264329871496 0
0.9242548825481681 0.4757504937567077 0
0.8999999999999992 0.4330127018922213 0
1 0.25 0
0.9190255570915294 0.2999250228383536 0
1 0.1 0
1 0.05 0
0.9539496801499476 0.08144394724531956 0
0.8992179206083348 0.5191779345769669 0
0.9196729781443864 0.6499999999999999 0
0.9012584132604375 0.1733950544963769 0
0.955543497737481 0.1743449231938203 0
0.9249999999999996 0.1299038105676663 0
0.9633974596215561 0.03660254037844402 0
0.8993581146825609 0.7769132438121243 0
0.9160254037844364 0.8175426480542973 0
0.9247651443039027 0.2181310985094028 0
0.9185000593506896 0.3946914947544264 0
0.9184135998993302 0.5568314757192605 0
0.8994881003730646 0.2595030130522955 0
0.8750956138689049 0.2167608064198378 0
0.9665063509461093 0.1250000000000005 0
0.8500620252760259 0.2598242407579541 0
0.8000723628220301 0.2598270106950573 0
0.8250383336611598 0.2165547617221225 0
0.7249999999999998 0.2165063509461098 0
0.7 0.2598076211353318 0
0.7500264660321312 0.2598147126872685 0
0.7250123476243941 0.3031121998605389 0
0.7749999999999995 0.2165063509461097 0
0.9 0 0
0.85 0 0
0.8746150391695422 0.04307901295012995 0
0.6750024009269652 0.3031095346509952 0
0.9230662432702592 0.04218481522075929 0
0.8996777072117096 0.08641646455036706 0
0.825 0.04330127018922192 0
0.7999999999999998 0.086602540378444 0
0.8499462845352848 0.08657152774043125 0
0.8249999999999996 0.129903810567666 0
0.6499999999999991 0.4330127018922195 0
0.6249999999999992 0.3897114317029973 0
0.5999999999999991 0.4330127018922192 0
0.775 0.04330127018922203 0
0.725 0.04330127018922214 0
0.7499999999999999 0.08660254037844417 0
0.6749999999999994 0.3897114317029978 0
0.7750740857463643 0.3031287425404633 0
0.7999999999999982 0.6062177826491083 0
0.824999999999998 0.6495190528383306 0
0.8940401989275786 0.8616311641379735 0
0.8499999999999959 0.8657510338813841 0
0.8251765385437125 0.5627705289955467 0
0.850061760122059 0.4330725802602896 0
0.75 0 0
0.7 0 0
0.8749999999999996 0.129903810567666 0
0.7749999999999972 0.7361215932167737 0
0.8249999999999972 0.7361215932167743 0
0.7999999999999976 0.6928203230275521 0
0.7999999999999968 0.779422863405996 0
0.849999999999997 0.7794228634059965 0
0.5999999999999982 0.6062177826491068 0
0.6499999999999982 0.6062177826491071 0
0.6249999999999984 0.5629165124598851 0
0.8499999999999986 0.5196152422706647 0
0.7999999999999987 0.5196152422706644 0
0.7999999999999958 0.8657902295818203 0
0.7749999999999964 0.8227241335952176 0
0.749999999999996 0.8659862080840026 0
0.7999999999999999 0.3464101615137766 0
0.8253721516561547 0.3032086090602834 0
0.6999999999999982 0.6062177826491075 0
0.7499999999999982 0.6062177826491078 0
0.7249999999999984 0.5629165124598857 0
0.7499999999999969 0.7794228634059954 0
0.7249999999999973 0.7361215932167733 0
0.699999999999997 0.779422863405995 0
0.8499999999999994 0.1732050807568879 0
0.624999999999999 0.4763139720814413 0
0.9566987298107781 0.375 0
0.65 1 0
0.7 1 0
0.7499999999999976 0.6928203230275516 0
0.7749999999999979 0.64951905283833 0
0.724999999999999 0.4763139720814419 0
0.7499999999999992 0.4330127018922201 0
0.6999999999999992 0.4330127018922199 0
0.8749999999999989 0.4763139720814429 0
0.7000020579373987 0.34641071293644 0
0.7250003429895659 0.3897115236067754 0
0.6499999999999996 0.3464101615137756 0
0.8249999999999964 0.822724133595218 0
0.824999999999999 0.4763139720814425 0
0.625 0.9566987298107782 0
0.6493583485359358 0.9146568880626789 0
0.6749999999999989 0.4763139720814417 0
0.8749999999999972 0.7361215932167747 0
0.7749999999999995 0.3897114317029984 0
0.7499999999999999 0.3464101615137762 0
0.8 0 0
0.95 0 0
1 0.2 0
1 0.15 0
0.8249999999999995 0.3897114317029987 0
0.8499999999999975 0.6928203230275526 0
0.7999999999999992 0.4330127018922204 0
0.7749999999999985 0.5629165124598861 0
0.7499999999999987 0.5196152422706639 0
0.6999999999999987 0.5196152422706637 0
0.774999999999999 0.4763139720814422 0
0.624999999999998 0.6495190528383288 0
0.6749999999999979 0.6495190528383292 0
0.7749999999999997 0.129903810567666 0
0.7499999999999996 0.1732050807568877 0
0.7999999999999995 0.1732050807568878 0
0.6749999999999985 0.5629165124598854 0
0.6499999999999988 0.5196152422706634 0
0.8735042339640697 0.8218148243545556 0
0.6999999999999976 0.6928203230275513 0
0.6499999999999978 0.6928203230275509 0
0.6749999999999974 0.7361203229857403 0
0.7254004357329464 0.822235799080228 0
0.8 1 0
0.85 1 0
0.7249999999999979 0.6495190528383296 0
0.7024026143976958 0.8631345923949412 0
0.6754671750217716 0.8219033785743147 0
0.6494218501920954 0.8682123419570085 0
0.75 1 0
0.9664345544080343 0.2216641861392085 0
1 0 0
0.1002768047118022 0.4327497027559344 0
0.04430959908926113 0.4272372841433814 0
0.08405597845742036 0.481542443681605 0
0.175226595577591 0.9539328180958228 0
0.2193348401705569 0.9087612864891439 0
0.1699159160136286 0.8980824636794337 0
0 0.3 0
0.04074683589492384 0.3240788250855712 0
0.04811063169272767 0.2652366790616983 0
0.03399241969200711 0.4765497358311931 0
0.6028265746916829 0.9123749062503672 0
0.5999999999999964 0.8646143585687227 0
0.274999999999995 0.9093266739736582 0
0.2269332845580029 0.9573059390998889 0
0.2753866569115996 0.964666268576865 0
0.4249999999999945 0.9093266739736611 0
0.375 0.9581097750264937 0
0.4249999999999997 0.9598583331105457 0
0.3749999999999946 0.9093266739736598 0
0.1249999999999978 0.6495190528383255 0
0.0933544663869732 0.6962763231947402 0
0.1499999999999972 0.6928203230275476 0
0.325 0.9566987298107781 0
0.3250093667234806 0.9062100824465236 0
0.475 0.9566987298107781 0
0.4734014517573324 0.9013111317167055 0
0.5173394368820917 0.9092387115712187 0
0.5288679586780372 0.9551061079072118 0
0.5771644880019172 0.9550994813476894 0
0.5628253074853318 0.9044162559268575 0
0.09322618195719123 0.6041115289419698 0
0.0448683284893584 0.5774570238381083 0
0.04330127018922181 0.625 0
0.08507973034284561 0.9002977454972303 0
0.07959128095287016 0.9547151376279602 0
0.1287533767270944 0.9251806161445918 0
0.04528486237204021 0.07959128095286938 0
0.07462213947770946 0.1281001992784758 0
0.09955981785559737 0.08489746056337383 0
0.0805617049867221 0.3044379262807068 0
0 0.25 0
0.08317250985817315 0.5575595862005236 0
0.1266390958535543 0.7306546517570608 0
0.07942745379376015 0.6499813809950071 0
0.1249999999999998 0.9665063509461096 0
0.03294499901686199 0.1263667525847511 0
0.04481799323456015 0.1741422826924102 0
0.09913633220576118 0.173361281079472 0
0.04962803636848245 0.5235148068549792 0
0.1018720973828832 0.5205300842544014 0
0.07500000000000095 0.2165063509461057 0
0.07787739510504099 0.3874061488863424 0
0.07677663732560158 0.04124885095992981 0
0.04105529476190684 0.9234663237124892 0
0.1269078917081933 0.772754603049532 0
0.1711737996633843 0.7422698825652277 0
0.1642917353335535 0.7876742006480066 0
0.2032556688262271 0.8641457425112182 0
0.4500013014417455 0.8657805162792656 0
0.4749999999999968 0.8227241335952158 0
0.4250038385772659 0.8226640639128389 0
0.4996665204628301 0.8655110269486043 0
0.3999999999999969 0.7794228634059936 0
0.4500006397628752 0.7794128517922642 0
0.375013921371366 0.8226668828214488 0
0.350016508688635 0.7794030008367872 0
0.5479978213352478 0.8645950754903238 0
0.5249999999999968 0.822724133595216 0
0.6499999999999995 0.2598076211353314 0
0.6249999999999996 0.3031088913245534 0
0.5999999999999993 0.3464101615137752 0
0.25 0 0
0.2250000000000003 0.04330127018922109 0
0.2750000000000011 0.04330127018922109 0
0.3250505976965996 0.8226730570707799 0
0.5000000000000006 0.08660254037844339 0
0.4750000000000004 0.04330127018922181 0
0.4500000000000003 0.08660254037844284 0
0.475000000000001 0.129903810567665 0
0.2250000000000014 0.1299038105676633 0
0.2500000000000014 0.08660254037844201 0
0.2000000000000008 0.08660254037844217 0
0 0.7 0
0 0.75 0
0.04330127018922247 0.7250000000000001 0
0.3999999999999995 0.4330127018922179 0
0.3499999999999996 0.4330127018922174 0
0.3749999999999992 0.4763139720814397 0
0.04225535043541673 0.675 0
0.4750000000000002 0.3031088913245527 0
0.4250000000000004 0.3031088913245522 0
0.4499999999999998 0.3464101615137744 0
0.1502113175154902 0.60609577842465 0
0.1750352195859133 0.6494987188009169 0
0.2000410895168996 0.6061940596054604 0
0.400007808650493 0.8659671239691162 0
0 0.8 0
0.0432156460025821 0.7749981080977749 0
0.4499999999999981 0.6062177826491058 0
0.4749999999999979 0.6495190528383279 0
0.4999999999999983 0.6062177826491062 0
0.5749999999999974 0.7361150606000328 0
0.5999999999999971 0.7793836677055579 0
0.6249999999999974 0.7361139718305766 0
0.424999999999999 0.4763139720814401 0
0.5749999999999991 0.3897114317029969 0
0.5499999999999989 0.4330127018922189 0
0.3000345330638529 0.7794120152889592 0
0.5250000000000008 0.1299038105676653 0
0.5500000000000004 0.1732050807568872 0
0.5750000000000004 0.1299038105676653 0
0.3000000000000015 0.08660254037844295 0
0.149999999999999 0.5196152422706599 0
0.1268674800920173 0.4772940244893759 0
0.1993681698748814 0.6938416489127228 0
0.08595852637501233 0.7509402347402476 0
0.3749999999999974 0.7361215932167711 0
0.2249999999999981 0.6495190528383262 0
0.5999999999999986 0.519615242270663 0
0.3249999999999974 0.7361215932167708 0
0.2749999999999975 0.7361215932167704 0
0.1260633023247254 0.3024915584869413 0
0.1500000000000002 0.3464101615137722 0
0.175197481615708 0.3029924531774728 0
0.3000000000000003 0.3464101615137733 0
0.325 0.3897114317029954 0
0.3500000000000002 0.3464101615137736 0
0.625 0.04330127018922186 0
0.6 0 0
0.5750000000000002 0.04330127018922181 0
0.2023819558889231 0.7807980862796607 0
0.2249999999999975 0.73612159321677 0
0.6999999999999998 0.08660254037844395 0
0.2750000000000005 0.3031088913245512 0
0.3250000000000005 0.3031088913245515 0
0.3249999999999993 0.4763139720814393 0
0.2749999999999994 0.4763139720814389 0
0.299999999999999 0.519615242270661 0
0.225 0.3897114317029947 0
0.2500000000000002 0.346410161513773 0
0.2000329136026182 0.3463907551559263 0
0.2250000000000005 0.3031088913245508 0
0.1501215873695207 0.259726325090471 0
0.5499999999999983 0.6062177826491065 0
0.574999999999998 0.6495190528383286 0
0.5499999999999972 0.7794228634059941 0
0.4999999999999972 0.7794228634059938 0
0.1753112466820024 0.4764773141494278 0
0.5250000000000002 0.04330127018922186 0
0.6749999999999996 0.2165063509461095 0
0.5499999999999993 0.346410161513775 0
0.5249999999999991 0.3897114317029968 0
0.499999999999999 0.4330127018922186 0
0.5749999999999988 0.4763139720814409 0
0.5249999999999988 0.4763139720814406 0
0.4749999999999989 0.4763139720814405 0
0.4499999999999992 0.4330127018922183 0
0.4749999999999994 0.3897114317029966 0
0.4249999999999997 0.3897114317029962 0
0.4999999999999977 0.6928203230275499 0
0.524999999999998 0.6495190528383282 0
0.649999999999997 0.7794228634059946 0
0.2499999999999984 0.6062177826491045 0
0.2749999999999987 0.5629165124598827 0
0.2249999999999988 0.5629165124598824 0
0.1749999999999988 0.5629165124598821 0
0.6249999999999968 0.8225897945900067 0
0.5999999999999978 0.6928203230275505 0
0.5499999999999986 0.5196152422706626 0
0.5249999999999985 0.5629165124598844 0
0.5749999999999984 0.5629165124598847 0
0.4749999999999984 0.5629165124598841 0
0.4249999999999985 0.5629165124598837 0
0.6749999999999999 0.04330127018922192 0
0.2000000000000008 0.2598076211353288 0
0.1749962737895255 0.2164971405031468 0
0.6 1 0
0.04330127018922192 0.825 0
0.6499999999999999 0.08660254037844373 0
0.6000000000000001 0.08660254037844362 0
0.625 0.1299038105676655 0
0.6499999999999997 0.1732050807568877 0
0.6249999999999996 0.2165063509461094 0
0.5999999999999994 0.2598076211353313 0
0.5249999999999974 0.7361215932167721 0
0.1248560553676276 0.2165323843332042 0
0.6749999999999997 0.1299038105676658 0
0.7249999999999996 0.1299038105676658 0
0.4249999999999974 0.7361215932167714 0
0.249999999999997 0.7794228634059921 0
0.2751566006865285 0.822710121417449 0
0.55 0 0
0.65 0 0
0 0.85 0
0 0.65 0
0.2999999999999984 0.6062177826491049 0
0.3499999999999984 0.6062177826491052 0
0.3249999999999981 0.649519052838327 0
0.1999999999999997 0.4330127018922165 0
0.2499999999999997 0.4330127018922168 0
0.175 0.3897114317029943 0
0.1499999999999997 0.433012701892216 0
0.2500000000000008 0.2598076211353291 0
0.3000000000000008 0.2598076211353295 0
0.3500000000000007 0.2598076211353298 0
0 0.55 0
0 0.6 0
0.4999999999999987 0.5196152422706625 0
0.3499999999999978 0.692820323027549 0
0.3999999999999977 0.6928203230275494 0
0.374999999999998 0.6495190528383272 0
0.2499999999999991 0.5196152422706606 0
0.4249999999999979 0.6495190528383276 0
0.3249999999999987 0.5629165124598832 0
0.3749999999999987 0.5629165124598835 0
0.349999999999999 0.5196152422706614 0
0.4750000000000007 0.2165063509461086 0
0.4250000000000008 0.2165063509461083 0
0.4500000000000005 0.2598076211353305 0
0.400000000000001 0.1732050807568862 0
0.3750000000000009 0.1299038105676645 0
0.3500000000000011 0.1732050807568861 0
0.1500000000000014 0.1732050807568847 0
0.3500329305316108 0.8657329756662714 0
0.2999999999999997 0.4330127018922171 0
0.5999999999999999 0.1732050807568875 0
0.1008734688494943 0.2592938114790855 0
0.08608879525860397 0.7999886485866492 0
0.5 0 0
0.15 1 0
0.2 1 0
0.05000000000000004 1 0
0.09999999999999998 1 0
0.5499999999999977 0.6928203230275503 0
0.4499999999999977 0.6928203230275496 0
0.1999999999999991 0.5196152422706602 0
0.275 0.389711431702995 0
0.4000000000000006 0.2598076211353301 0
0.35 0 0
0.3 0 0
0.3250000000000003 0.04330127018922181 0
0.425 0.04330127018922181 0
0.4 0 0
0.3750000000000002 0.04330127018922164 0
0.3 1 0
0.35 1 0
0.2749999999999981 0.6495190528383266 0
0.2999999999999978 0.6928203230275487 0
0.1262679050929503 0.5621844871131592 0
0.2 0 0
0.15 0 0
0.1750000000000001 0.04330127018922081 0
0.2249999999999994 0.4763139720814386 0
0.2500000000000014 0.1732050807568853 0
0.2750000000000016 0.129903810567664 0
0.2000000000000015 0.173205080756885 0
0.1750000000000012 0.1299038105676633 0
0.450000000000001 0.1732050807568865 0
0.5000000000000008 0.1732050807568871 0
0.4250000000000008 0.1299038105676645 0
0.4000000000000001 0.346410161513774 0
0.1250000000000015 0.1299038105676628 0
0.4000000000000004 0.08660254037844306 0
0.6999999999999996 0.1732050807568877 0
0.3750000000000008 0.216506350946108 0
0.3000000000000013 0.1732050807568857 0
0.3750000000000004 0.3031088913245518 0
0.08612848246201787 0.8499318915198936 0
0.4499999999999987 0.5196152422706621 0
0.4749999999999974 0.7361215932167717 0
0.2499999999999978 0.6928203230275483 0
0.2750000000000011 0.2165063509461074 0
0.2250000000000011 0.216506350946107 0
0.5749999999999968 0.822488959392597 0
0 0.45 0
0 0.5 0
0 0.15 0
0 0.2 0
0.04306533549328051 0.8745913491193612 0
0.5499999999999998 0.2598076211353313 0
0.5749999999999998 0.2165063509461095 0
0.5749999999999995 0.3031088913245532 0
0 0.35 0
0 0.05000000000000004 0
0 0.09999999999999998 0
0.1277910738106815 0.8766719936932785 0
0.3999999999999982 0.6062177826491055 0
0.4999999999999996 0.3464101615137749 0
0.45 0 0
0 0.9 0
0.325000000000001 0.2165063509461078 0
0.1250000000000001 0.3897114317029939 0
0.3749999999999999 0.3897114317029956 0
0.45 1 0
0.5 1 0
0.2259396041191893 0.8226400605286224 0
0.2507253122719885 0.8656957793648403 0
0.3001469854930832 0.8657329568155907 0
0.3250000000000014 0.1299038105676646 0
0.55 1 0
0.1039886660743011 0.34672977707684 0
0.1813830504837609 0.8233434025183426 0
0.5250000000000002 0.2165063509461094 0
0.5500000000000007 0.08660254037844345 0
0.5000000000000002 0.259807621135331 0
0.3999999999999988 0.5196152422706618 0
0.1499266363092668 0.08631836040926377 0
0.1253230599081162 0.04273379219590534 0
0.5249999999999998 0.3031088913245532 0
0.350000000000001 0.08660254037844323 0
0.1 0 0
0.06569386420549483 0.3518707225105338 0
0 0.4 0
0.133960710003776 0.8243095807368928 0
0 0.95 0
0.05 0 0
0.25 1 0
0.4 1 0
0.03477617481834561 0.375 0
0 1 0
0.0366025403784439 0.963397459621556 0
0 0 0
0.03660254037844396 0.0366025403784439 0
0.03384098302246208 0.2214062241328784 0
0.1632612838276148 0.8573106366278331 0
2 4 0 16
40
45
44
39
41
38
37
304
43
42
47
46
308
48
3
313
1 0.6 0
1 0.85 0
1 0.8 0
1 0.55 0
1 0.65 0
1 0.5 0
1 0.45 0
0.961245534164257 0.8763928351619448 0
1 0.75 0
1 0.7 0
1 0.95 0
1 0.9 0
0.9575918000028917 0.9250814317320106 0
0.95 1 0
1 1 0
0.963397459621556 0.9633974596215561 0
2 5 0 472
593
595
594
596
598
597
599
600
601
603
602
604
605
607
606
608
161
609
610
611
154
612
614
613
615
616
618
617
619
621
620
622
623
624
626
625
627
629
628
630
631
121
120
632
633
635
634
636
637
639
638
640
642
641
643
644
646
645
647
648
649
650
651
652
653
654
655
656
657
659
658
660
661
662
664
663
665
666
668
667
669
671
670
672
673
675
674
676
158
157
677
679
678
135
680
681
683
682
684
686
685
687
688
689
690
692
691
693
694
696
695
697
698
699
700
702
701
703
704
705
116
706
707
709
708
710
114
711
713
712
714
716
715
717
719
718
720
721
722
723
724
726
725
727
728
730
729
731
732
733
735
734
736
738
737
130
129
739
740
741
742
743
744
97
96
746
745
102
101
134
747
748
749
149
143
750
751
752
753
754
755
756
757
759
758
760
761
762
763
764
765
767
766
768
769
771
770
772
773
112
7
115
125
124
774
776
775
777
779
778
780
782
781
113
783
784
785
786
787
132
788
789
141
791
790
792
794
793
795
797
796
798
800
799
801
159
802
804
803
805
806
808
807
810
809
106
111
811
812
813
814
815
816
817
818
820
819
821
142
822
824
823
825
827
826
828
829
830
99
98
110
832
831
833
152
834
835
836
837
838
133
839
155
840
119
118
162
841
842
843
148
145
147
131
844
117
845
126
846
847
848
849
151
105
109
108
128
140
153
851
850
104
107
852
853
854
855
856
857
156
858
859
860
861
862
150
863
144
864
123
122
95
94
127
100
146
93
92
160
865
866
867
8
91
868
869
6
103
5
870
873
872
874
876
875
877
878
880
881
886
888
887
889
891
890
892
893
894
895
896
898
897
899
902
903
904
909
910
911
912
913
914
915
916
918
917
919
920
921
922
923
925
924
926
927
929
928
930
931
933
932
934
935
936
937
938
940
939
941
942
943
139
138
944
945
946
947
950
949
951
953
952
954
88
955
956
957
959
958
960
961
962
963
964
966
965
967
968
969
970
971
972
974
973
975
977
978
979
137
980
981
982
983
984
985
986
136
987
988
989
990
992
991
993
994
90
995
996
997
89
999
1000
1.952459110816757 0.3172940119650962 0
1.924936766220367 0.2684220879741535 0
1.899511475863584 0.3095427335146043 0
1.375 0.0906733260263396 0
1.425 0.09067332602633954 0
1.375 0.04189022497350625 0
1.425 0.04014166688945447 0
1.965842067762136 0.275 0
1.524999999999998 0.09067332602633915 0
1.575 0.04330127018922186 0
1.525 0.03545517328095665 0
1.574999999999998 0.09863984083650112 0
1.675 0.04330127018922186 0
1.624999999999998 0.09067332602633904 0
1.67419835059167 0.09313713210678176 0
1.625 0.03545517328095649 0
1.325 0.04330127018922186 0
1.325000070100854 0.09378649908390096 0
1.475 0.04330127018922197 0
1.474999999999999 0.09862285603297893 0
1.275 0.09067332602633915 0
1.799999999999998 0.1339745962155601 0
1.757555127063663 0.0866243172530603 0
1.746046479075286 0.1324794318770799 0
1.8 0.08519149516272734 0
1.928027864628169 0.0414496343161741 0
1.876695554085769 0.05363305599878404 0
1.919252406035924 0.09740516946707328 0
1.876368718773096 0.100723350085523 0
1.822800274023547 0.04464499979560749 0
1.837398720903607 0.09479671840893306 0
1.697800274023546 0.1326700623096118 0
1.711801644141285 0.07978885795659307 0
1.952944500734377 0.7319551468455077 0
1.900000000000001 0.7401923788646667 0
1.925819199247736 0.7813289110754134 0
1.906804006259306 0.395871041883105 0
1.955131671510641 0.4225429761618898 0
1.956698729810778 0.375 0
1.96729055123405 0.775 0
1.917009180669416 0.4420120087533184 0
2 0.95 0
2 0.9 0
1.953954681073214 0.9185552321504198 0
1.955567380354642 0.8255494650744213 0
1.901262084977551 0.8265874554656559 0
1.925000000000002 0.8700961894323318 0
1.963397459621556 0.9633974596215562 0
1.899620688932535 0.2221791618931187 0
1.95237068226645 0.2243049753053228 0
1.916025403784437 0.1824573519457034 0
1.874103952922396 0.6251809454180717 0
1.872589860485777 0.5786043330727316 0
1.828077421772197 0.6072360901220829 0
1.918884526655241 0.3498827098819652 0
1.960169849165676 0.172076225324284 0
1.895204631999699 0.137996375090652 0
1.930745038167567 0.1425937785212184 0
1.963072899852099 0.1230337707783796 0
1.898744936548019 0.4786613414540089 0
1.949866416576321 0.4762419096464939 0
1.912350882721308 0.6927119893212674 0
1.919857542643494 0.5134841063444239 0
1.875000000000001 0.7834936490538885 0
1.837245631317423 0.5594452423651776 0
1.96650635094611 0.8749999999999983 0
1.873466417119178 0.5260238928459907 0
1.915702006077861 0.5535240231232972 0
1.899712713674574 0.9135777912198124 0
1.850000000000002 0.9133974596215542 0
1.874629826157473 0.9569148609052307 0
1.92306624327026 0.9578151847792402 0
1.825 0.9566987298107781 0
1.674999886502927 0.8700962297475924 0
1.624999981083821 0.8700961961515439 0
1.649999949031407 0.9133974777260934 0
1.699999826601693 0.9133975212143119 0
1.675 0.9566987298107781 0
1.799999826601693 0.9133975212143114 0
1.774999930115228 0.9566987546345249 0
1.700000000000002 0.8267949192431113 0
1.674998684556682 0.7834941113569811 0
1.649999706909338 0.8267950199795553 0
1.749999754089674 0.9133975469712823 0
1.725 0.6102885682970017 0
1.7 0.5669872981077798 0
1.674998238757945 0.6102884650553282 0
1.325 0.956698729810778 0
1.299999999999999 0.9133974596215557 0
1.275 0.9566987298107779 0
1.624999689312596 0.7834937441349911 0
1.6 0.7401923788646683 0
1.574999948218766 0.7834936649007403 0
1.3 1 0
1.724999918467766 0.9566987587718161 0
1.55 0.5669872981077805 0
1.575 0.6102885682970024 0
1.6 0.5669872981077803 0
1.475 0.9566987298107779 0
1.5 0.9133974596215561 0
1.45 0.9133974596215561 0
1.699989432547667 0.6535892190361813 0
1.749966493459046 0.6535704934757837 0
1.649996200285888 0.7401934819768163 0
1.525 0.8700961894323341 0
1.5 0.8267949192431121 0
1.474999999999999 0.8700961894323344 0
1.699986411452737 0.7401965150015972 0
1.624999999999998 0.2638784067832267 0
1.574999999999998 0.2638784067832268 0
1.599999999999999 0.3071796769724487 0
1.749995914105329 0.8267963705924204 0
1.724999319017556 0.8700964313238846 0
1.625 0.6102885682970023 0
1.425 0.9566987298107781 0
1.399999999999999 0.9133974596215559 0
1.375 0.956698729810778 0
1.349999999999999 0.9133974596215558 0
1.674992105705909 0.6968931289083148 0
1.724952634235454 0.6969032300726588 0
2 0.7 0
1.957109322072896 0.6761591911409177 0
1.599999999999999 0.4803847577293365 0
1.549999999999999 0.4803847577293366 0
1.575 0.5236860279185584 0
1.956698729810778 0.625 0
2 0.6 0
1.956962560707356 0.5755025025319502 0
1.849999999999998 0.3071796769724476 0
1.875164743377879 0.351142769480453 0
1.624999999999999 0.3504809471616706 0
1.674999999999999 0.3504809471616703 0
1.649999999999999 0.3071796769724485 0
1.549999999999998 0.2205771365940049 0
1.599999999999998 0.2205771365940048 0
1.574999999999998 0.1773215947219589 0
1.725 0.5236860279185577 0
1.675 0.523686027918558 0
1.798529378263016 0.6541616238589781 0
1.774749311953678 0.6969831820691643 0
1.425 0.6102885682970026 0
1.475 0.6102885682970025 0
1.45 0.5669872981077806 0
1.851966940690212 0.1351167425692746 0
1.749999999999998 0.2205771365940042 0
1.799999999999998 0.220577136594004 0
1.774999999999998 0.1775110406074016 0
1.375 0.8700961894323339 0
1.6 0.8267949192431123 0
1.549999999999999 0.3937822173508928 0
1.524999999999999 0.3504809471616708 0
1.499999999999999 0.3937822173508929 0
1.7 0.480384757729336 0
1.75 0.4803847577293356 0
1.724999999999999 0.4370834875401138 0
1.55 1 0
1.6 1 0
1.575 0.956698729810778 0
1.799999999999998 0.3071796769724477 0
1.824999999999999 0.3504809471616696 0
1.849999999999999 0.3937822173508915 0
1.774738127859946 0.04329325642620629 0
1.726923295333538 0.04216432082507748 0
1.7 0 0
1.65 0 0
1.824988886113051 0.7834976780776682 0
1.84999814768551 0.8267955907470738 0
1.95 0 0
1.9 0 0
1.35 1 0
1.55 0.6535898384862244 0
1.6 0.6535898384862243 0
1.474999999999999 0.5236860279185587 0
1.45 0.4803847577293368 0
1.424999999999999 0.5236860279185587 0
1.499999999999999 0.4803847577293367 0
1.524999999999999 0.4370834875401147 0
1.849999999999998 0.2205836692107432 0
1.874999999999998 0.2638796770142582 0
1.625 0.6968911086754462 0
1.599999999999998 0.1342489661186168 0
1.649999999999998 0.1342097704181803 0
1.475 0.7834936490538902 0
1.425 0.7834936490538902 0
1.45 0.8267949192431125 0
1.549999999999999 0.3071796769724487 0
1.574999999999999 0.3504809471616708 0
1.624999999999998 0.1772758664047828 0
1.65 0.5669872981077801 0
1.873768838901196 0.178604430656603 0
1.599999999999999 0.3937822173508927 0
1.624999999999999 0.4370834875401144 0
1.649999999999999 0.3937822173508924 0
1.875210038777178 0.870061724053417 0
1.825034536430811 0.8700906144197682 0
1.625 0.9566987298107781 0
1.599999988352538 0.9133974637588472 0
1.574999999999999 0.4370834875401146 0
1.957938195889806 0.5275293039446866 0
2 0.5 0
1.25 1 0
2 0.65 0
1.8 1 0
1.85 1 0
1.774999999999999 0.3504809471616698 0
1.749999999999998 0.307179676972448 0
1.724999999999999 0.3504809471616701 0
1.375 0.6968911086754463 0
1.4 0.7401923788646683 0
1.425 0.6968911086754463 0
1.799999999999999 0.3937822173508916 0
1.749999999999999 0.3937822173508918 0
1.774982553001831 0.4370801925234944 0
2 0.55 0
1.45 0.7401923788646683 0
1.674999999999999 0.4370834875401142 0
1.699999999999999 0.3937822173508921 0
1.4 0.8267949192431121 0
1.4 0.6535898384862245 0
1.45 1 0
1.913397459621556 0.6 0
1.35 0.7401923788646682 0
1.325 0.6968911086754462 0
1.774999999999998 0.263878406783226 0
1.824999999999998 0.2638794955526824 0
1.799949939386423 0.7402106187300348 0
1.749950324364856 0.7402097446631559 0
1.774983377291881 0.7834995833311984 0
1.774583225581445 0.5234454030958133 0
1.79749935348867 0.5655435491713148 0
1.821939398722817 0.5225036482706646 0
1.849989804249913 0.7401960903461913 0
1.869332220404858 0.6993240806609144 0
1.823234250606789 0.697769838411668 0
1.649999999999999 0.6535898384862242 0
1.375 0.6102885682970026 0
1.625 0.5236860279185583 0
1.55 0.8267949192431121 0
1.525 0.7834936490538902 0
1.524999999999999 0.5236860279185586 0
1.524999999999999 0.2638784067832269 0
1.499999999999998 0.2205771365940051 0
1.474999999999999 0.2638784067832272 0
1.575 0.6968911086754462 0
1.55 0.7401923788646683 0
2 0.2 0
2 0.45 0
1.75 0.5669872981077795 0
1.774798960754273 0.610172498234363 0
1.524999999999999 0.6102885682970025 0
1.5 0.5669872981077806 0
1.824999999999998 0.1773150621052185 0
1.799895318010992 0.4803649876296203 0
1.449999999999999 0.2205771365940052 0
1.325 0.1772758664047833 0
1.375 0.1772758664047834 0
1.35 0.1342097704181807 0
1.800000011191177 0.8267960514678786 0
1.399999999999999 0.5669872981077806 0
1.499999999999998 0.1342097704181806 0
1.524999999999998 0.177275866404783 0
1.549999999999998 0.1343023158219889 0
1.499999999999999 0.3071796769724489 0
1.449999999999999 0.3071796769724492 0
1.474999999999999 0.350480947161671 0
1.525 0.956698729810778 0
1.55 0.9133974596215559 0
1.649999999999999 0.4803847577293363 0
1.8 0 0
1.75 0 0
2 0.4 0
1.699999999999998 0.3071796769724482 0
1.674999999999998 0.2638784067832265 0
1.375 0.7834936490538901 0
1.325 0.78349364905389 0
1.35 0.826794919243112 0
1.724992107340089 0.7834964228724366 0
1.474999999999998 0.1772758664047832 0
1.849788682484507 0.4805067619537889 0
1.724999999999998 0.2638784067832262 0
1.4 1 0
1.35 0.2205771365940052 0
1.3 0.2205771365940051 0
1.325 0.263878406783227 0
2 0.85 0
2 0.8 0
1.325 0.8700961894323338 0
1.649999999999998 0.2205771365940046 0
1.699999999999998 0.2205771365940045 0
1.349999999999999 0.3071796769724489 0
1.325 0.3504809471616709 0
1.375 0.3504809471616711 0
1.275 0.263878406783227 0
1.5 1 0
1.424999999999999 0.8700961894323342 0
2 0.75 0
1.915948028046277 0.6478286185080735 0
1.75 1 0
1.525 0.6968911086754463 0
1.424999999999999 0.2638784067832272 0
1.374999999999999 0.263878406783227 0
1.399999999999999 0.2205771365940052 0
1.3 0.8267949192431119 0
2 0.15 0
2 0.35 0
2 0.3 0
1.65 1 0
1.3 0.740192378864668 0
1.300001346497203 0.1342586351363685 0
1.824999999999999 0.4370834875401134 0
1.873732094907047 0.4378155128868357 0
2 0.1 0
2 0.25 0
1.399999999999999 0.3071796769724491 0
1.674999999999998 0.1772758664047828 0
1.724633379003923 0.1773328139901804 0
1.424999999999999 0.3504809471616711 0
1.5 0.7401923788646683 0
1.475 0.6968911086754463 0
1.275 0.1772758664047831 0
1.4 0.1340137919159982 0
1.45 0.6535898384862244 0
1.575 0.870096189432334 0
1.5 0.6535898384862244 0
1.474999999999999 0.4370834875401148 0
1.424999999999999 0.4370834875401148 0
1.449999999999999 0.393782217350893 0
1.399999999999999 0.3937822173508929 0
1.774999205520482 0.8700964716391428 0
1.9 1 0
1.95 1 0
1.6 0 0
1.55 0 0
1.7 1 0
1.85 0 0
1.3 0.307179676972449 0
1.5 0 0
1.45 0 0
1.35 0.6535898384862244 0
1.449999999999999 0.1342565875048133 0
1.424999999999999 0.1772823990215229 0
1.880862654619109 0.6627345015955208 0
1.35 0 0
1.4 0 0
1.842617050839136 0.6578523861716609 0
1.96235265250566 0.07468763834064313 0
2 1 0
2 0.05 0
2 0 0
1.963762744517769 0.03623725548223139 0
1.100477985173142 0.3087852416109448 0
1.075079679463911 0.2684224661588788 0
1.225 0.09067332602633915 0
1.275 0.04189022497350586 0
1.225 0.04014166688945431 0
1.043340702571742 0.6773212926101595 0
1.048133357473692 0.7341554207615975 0
1.175 0.04330127018922186 0
1.175557854215003 0.09862461310485482 0
1.044868328489359 0.4225429761618902 0
1.093229372937246 0.3958903436168023 0
1.043301270189222 0.375 0
1.148714995574619 0.65353880557411 0
1.093889397305418 0.6523201723855125 0
1.125 0.6968911086754457 0
1.129386664080418 0.6119703639452516 0
1.082996219610864 0.4420151914185547 0
1.081662611322328 0.7001696787596459 0
1.046045268559134 0.9185552988906346 0
1.098727074688556 0.8266049455036226 0
1.044456502262519 0.8256550768061793 0
1.075 0.8700961894323331 0
1.036602540378444 0.963397459621556 0
1.101354586922844 0.2229251628974636 0
1.075216826106562 0.7818693631467805 0
1.081121840523814 0.3497969368478411 0
1.085460760984947 0.599140885406357 0
1.050131743034316 0.4762408773427821 0
1.101242180726439 0.4786541153280246 0
1.080142457356506 0.5134841063444242 0
1.124912927693966 0.7834936490538894 0
1.100505306446766 0.7404997568848082 0
1.033493649053891 0.8749999999999991 0
1.175 0.9566987298107776 0
1.15 0.9133974596215552 0
1.125370115080267 0.9569149387688145 0
1.100286933751861 0.9135782584013135 0
1.076933756729741 0.9578151847792407 0
1.199994106827261 0.9133965801135023 0
1.224999017804543 0.9566985832261021 0
1.149985487948995 0.7401923788646676 0
1.175 0.7834936490538896 0
1.199997581324832 0.7401923788646677 0
1.15 0.8267949192431114 0
1.124874814743591 0.3510403839159979 0
1.150214508495545 0.3939060941341209 0
1.175014887206522 0.3505948327512633 0
1.249999999999999 0.9133974596215556 0
1.2 0.220577136594005 0
1.25 0.220577136594005 0
1.225006924842759 0.17732559278179 0
1.224999999999999 0.3504809471616707 0
1.200015100898566 0.3937973436548852 0
1.124787845781426 0.8700645271424183 0
1.174783010808075 0.6968826031900934 0
1.349999999999999 0.4803847577293368 0
1.325 0.4370834875401148 0
1.3 0.4803847577293368 0
1.274999999999999 0.4370834875401147 0
1.349999999999999 0.3937822173508928 0
1.250008078983219 0.1340326103220693 0
1.05 1 0
1.1 1 0
1.043307842252975 0.6253868821016932 0
1.042902295562912 0.5754462843781467 0
1.042061804110194 0.5275293039446867 0
1.274999999999999 0.8700961894323337 0
1.399999999999999 0.4803847577293368 0
1.375 0.4370834875401148 0
1.25 0.3071796769724489 0
1.225 0.2638784067832269 0
1.2 0.3071796769724487 0
1.175 0.2638784067832269 0
1.2 0 0
1.125 0.2638784067832268 0
1.15 0.2205771365940049 0
1.349999999999999 0.5669872981077806 0
1.325 0.5236860279185587 0
1.3 0.5669872981077806 0
1.275 0.7834936490538899 0
1.25 0.8267949192431117 0
1.2 0.8267949192431115 0
1.225 0.7834936490538897 0
1.225 0.6968911086754458 0
1.25 0.6535898384862241 0
1.2 0.6535898384862239 0
1.325 0.6102885682970025 0
1.3 0.6535898384862243 0
1.126287050973272 0.4378267482394858 0
1.175000000000001 0.4370834875401143 0
1.175 0.1772758664047829 0
1.175573898740041 0.5240228380372619 0
1.225118218968853 0.5237551932598247 0
1.200115352951483 0.480452420305998 0
1.375 0.5236860279185587 0
1.275019703161475 0.5236975554754363 0
1.250045416762287 0.4804113631578225 0
1.200041549056554 0.1342729544776028 0
1.15 1 0
1.275 0.696891108675446 0
1.150114875281921 0.4804521698452304 0
1.299999999999999 0.3937822173508928 0
1.274999999999999 0.3504809471616709 0
1.25 0.3937822173508927 0
1.175812490438468 0.610757659870365 0
1.149999999999999 0.3071796769724486 0
1.2 1 0
1.224999999999999 0.8700961894323336 0
1.174964640963571 0.8700909123840141 0
1.25 0.7401923788646678 0
1.225 0.6102885682970021 0
1.200135415073078 0.5670654800366739 0
1.153307977367168 0.5689299768911087 0
1.122861747494136 0.5275023530907232 0
1.250011858652793 0.5669941908446191 0
1.3 0 0
1.275 0.6102885682970024 0
1.225019225491914 0.4370947646362248 0
1.081242346928226 0.5530640801716091 0
1.25 0 0
1.033561337168555 0.7783359721429115 0
1.114451899370979 0.5721215319010099 0
2 6 0 10
885
884
905
906
907
908
86
85
998
1001
1.07197213537183 0.0414496343161741 0
1.081301360023563 0.09433434647164457 0
1.039830150834323 0.1720762253242841 0
1.105208841328076 0.1377917042030669 0
1.069448409709885 0.141938679744616 0
1.0369271001479 0.1230337707783795 0
1.1 0 0
1.05 0 0
1.037739641837587 0.07417583450807158 0
1.036237255482231 0.03623725548223122 0
2 7 0 0
$EndNodes
$Elements
3 988 1 1880
2 4 2 31
63 257 40 258 
79 45 44 228 
87 40 39 258 
88 185 41 257 
127 41 40 257 
144 39 38 217 
150 37 36 213 
151 45 228 304 
155 44 43 223 
171 42 41 185 
172 47 46 308 
173 308 46 304 
179 39 217 258 
180 228 44 223 
195 46 45 304 
247 204 304 311 
256 49 48 205 
265 205 308 204 
269 223 43 194 
270 42 185 194 
273 217 38 227 
274 37 213 227 
281 3 47 313 
283 48 3 313 
285 308 304 204 
297 43 42 194 
301 38 37 227 
305 205 48 313 
307 47 308 313 
310 304 228 311 
311 308 205 313 
2 5 2 909
939 593 595 594 
940 596 598 597 
941 597 598 599 
942 595 593 600 
943 601 603 602 
944 603 601 604 
945 605 607 606 
946 607 605 608 
947 161 596 597 
948 596 161 609 
949 610 598 611 
950 598 610 599 
951 161 154 609 
952 603 607 608 
953 607 603 604 
954 610 601 602 
955 601 610 611 
956 612 614 613 
957 614 612 615 
958 616 618 617 
959 618 619 617 
960 618 621 620 
961 622 613 623 
962 624 626 625 
963 619 618 620 
964 613 614 623 
965 627 629 628 
966 624 625 630 
967 629 627 631 
968 121 120 632 
969 633 635 634 
970 121 632 636 
971 637 639 638 
972 635 633 625 
973 640 642 641 
974 637 595 639 
975 627 628 643 
976 593 594 643 
977 639 644 638 
978 617 646 645 
979 647 617 645 
980 648 649 631 
981 626 624 650 
982 649 648 651 
983 626 652 625 
984 652 635 625 
985 641 642 653 
986 633 634 654 
987 655 642 656 
988 657 659 658 
989 657 660 632 
990 659 661 658 
991 662 664 663 
992 665 662 663 
993 666 665 663 
994 660 657 658 
995 661 668 667 
996 669 671 670 
997 661 659 668 
998 668 672 667 
999 673 675 674 
1000 676 158 157 
1001 677 679 678 
1002 135 676 157 
1003 667 672 680 
1004 681 683 682 
1005 684 686 685 
1006 687 673 674 
1007 688 673 687 
1008 671 677 670 
1009 689 679 677 
1010 672 665 680 
1011 664 662 670 
1012 690 692 691 
1013 671 693 689 
1014 665 666 680 
1015 694 696 695 
1016 697 669 698 
1017 683 699 682 
1018 700 702 701 
1019 701 702 703 
1020 698 662 665 
1021 704 705 687 
1022 624 116 706 
1023 676 701 703 
1024 707 709 708 
1025 710 114 711 
1026 594 713 712 
1027 714 716 715 
1028 717 719 718 
1029 720 721 675 
1030 722 688 723 
1031 724 726 725 
1032 727 646 619 
1033 728 730 729 
1034 705 688 687 
1035 702 731 703 
1036 158 676 703 
1037 686 690 691 
1038 732 677 678 
1039 662 669 670 
1040 733 735 734 
1041 736 738 737 
1042 705 704 693 
1043 700 684 685 
1044 130 129 739 
1045 740 741 713 
1046 741 742 712 
1047 743 744 614 
1048 97 96 605 
1049 652 746 745 
1050 102 101 616 
1051 135 134 676 
1052 686 691 685 
1053 747 748 683 
1054 749 149 143 
1055 750 709 751 
1056 752 753 637 
1057 704 754 689 
1058 755 756 607 
1059 757 759 758 
1060 760 735 761 
1061 762 755 718 
1062 675 763 674 
1063 752 637 764 
1064 765 767 766 
1065 768 745 769 
1066 739 771 770 
1067 751 772 733 
1068 634 657 632 
1069 773 112 649 
1070 7 135 157 
1071 692 758 691 
1072 115 710 706 
1073 125 124 661 
1074 715 694 695 
1075 774 776 775 
1076 777 779 778 
1077 695 696 760 
1078 780 782 781 
1079 113 773 711 
1080 779 783 778 
1081 784 737 785 
1082 694 719 696 
1083 759 786 758 
1084 777 778 787 
1085 700 132 684 
1086 788 710 711 
1087 759 783 779 
1088 784 736 737 
1089 789 777 141 
1090 730 791 790 
1091 675 721 763 
1092 792 794 793 
1093 795 797 796 
1094 798 746 652 
1095 798 800 799 
1096 801 687 674 
1097 724 159 787 
1098 802 707 708 
1099 802 708 682 
1100 692 804 803 
1101 805 681 708 
1102 749 805 750 
1103 750 805 709 
1104 749 143 725 
1105 806 808 807 
1106 679 810 809 
1107 693 704 689 
1108 106 644 639 
1109 111 629 649 
1110 692 803 757 
1111 763 721 802 
1112 738 720 795 
1113 811 673 812 
1114 812 688 722 
1115 722 723 799 
1116 723 794 792 
1117 792 798 799 
1118 699 763 682 
1119 801 754 704 
1120 659 768 769 
1121 690 804 692 
1122 809 803 678 
1123 681 813 683 
1124 726 814 725 
1125 814 805 749 
1126 708 681 682 
1127 709 805 708 
1128 729 730 815 
1129 738 816 781 
1130 807 808 817 
1131 818 820 819 
1132 748 699 683 
1133 754 679 689 
1134 769 745 821 
1135 724 725 142 
1136 811 675 673 
1137 812 673 688 
1138 723 705 794 
1139 822 824 823 
1140 825 827 826 
1141 735 826 734 
1142 828 829 686 
1143 830 767 707 
1144 766 784 785 
1145 719 762 718 
1146 825 735 760 
1147 771 663 770 
1148 99 98 743 
1149 629 110 628 
1150 732 664 670 
1151 715 832 831 
1152 833 152 834 
1153 793 835 697 
1154 808 836 817 
1155 671 689 677 
1156 657 768 659 
1157 727 764 646 
1158 595 753 594 
1159 676 134 701 
1160 791 740 790 
1161 824 718 823 
1162 648 837 655 
1163 695 760 761 
1164 97 605 744 
1165 735 733 761 
1166 714 695 761 
1167 838 791 728 
1168 727 815 764 
1169 133 700 701 
1170 733 765 761 
1171 838 832 776 
1172 791 776 740 
1173 839 155 840 
1174 740 774 741 
1175 721 830 802 
1176 811 812 797 
1177 723 688 705 
1178 723 792 799 
1179 762 756 755 
1180 752 790 753 
1181 745 746 821 
1182 741 780 742 
1183 753 713 594 
1184 763 802 682 
1185 637 753 595 
1186 724 142 159 
1187 816 795 796 
1188 793 794 835 
1189 697 835 669 
1190 114 113 711 
1191 119 118 633 
1192 765 772 767 
1193 766 767 784 
1194 784 830 736 
1195 806 825 760 
1196 635 745 768 
1197 737 782 785 
1198 162 158 703 
1199 115 114 710 
1200 772 709 707 
1201 775 716 785 
1202 694 831 841 
1203 838 728 842 
1204 843 148 145 
1205 155 147 840 
1206 808 824 836 
1207 729 815 612 
1208 132 131 684 
1209 765 766 714 
1210 830 707 802 
1211 844 731 702 
1212 113 112 773 
1213 117 116 624 
1214 706 710 845 
1215 818 155 839 
1216 719 841 762 
1217 736 720 738 
1218 746 793 821 
1219 748 801 699 
1220 126 125 667 
1221 810 846 809 
1222 814 681 805 
1223 847 807 817 
1224 679 809 678 
1225 848 847 849 
1226 162 834 151 
1227 731 162 703 
1228 106 105 644 
1229 644 105 647 
1230 109 108 593 
1231 110 109 628 
1232 686 829 690 
1233 740 776 774 
1234 696 719 717 
1235 740 713 790 
1236 786 731 844 
1237 134 133 701 
1238 771 666 663 
1239 837 816 796 
1240 635 768 634 
1241 128 666 771 
1242 784 767 830 
1243 715 831 694 
1244 833 779 789 
1245 736 830 721 
1246 696 806 760 
1247 806 807 825 
1248 828 739 829 
1249 714 715 695 
1250 832 716 775 
1251 694 841 719 
1252 786 833 834 
1253 152 789 140 
1254 737 738 781 
1255 818 819 153 
1256 782 774 775 
1257 713 741 712 
1258 742 851 850 
1259 816 851 781 
1260 822 823 601 
1261 652 745 635 
1262 105 104 647 
1263 107 106 639 
1264 843 145 852 
1265 833 789 152 
1266 808 717 824 
1267 762 853 756 
1268 622 853 854 
1269 145 855 852 
1270 739 129 771 
1271 757 856 783 
1272 783 857 778 
1273 716 766 785 
1274 776 832 775 
1275 789 779 777 
1276 156 155 818 
1277 736 721 720 
1278 720 675 811 
1279 792 793 746 
1280 818 839 820 
1281 741 774 780 
1282 825 826 735 
1283 763 699 674 
1284 742 780 851 
1285 851 780 781 
1286 742 627 712 
1287 850 851 837 
1288 819 820 858 
1289 782 737 781 
1290 778 859 787 
1291 732 860 664 
1292 757 783 759 
1293 846 856 809 
1294 857 861 859 
1295 747 846 810 
1296 861 813 726 
1297 859 726 724 
1298 749 750 149 
1299 149 862 150 
1300 751 733 734 
1301 728 729 854 
1302 853 841 842 
1303 793 697 821 
1304 806 717 808 
1305 748 810 754 
1306 669 835 671 
1307 827 807 847 
1308 855 827 852 
1309 596 858 598 
1310 862 734 863 
1311 129 128 771 
1312 767 772 707 
1313 762 841 853 
1314 672 698 665 
1315 853 842 854 
1316 860 829 770 
1317 857 859 778 
1318 861 726 859 
1319 831 838 842 
1320 815 730 752 
1321 144 150 863 
1322 697 698 864 
1323 748 754 801 
1324 864 672 668 
1325 756 853 622 
1326 718 755 823 
1327 111 110 629 
1328 112 111 649 
1329 123 122 660 
1330 125 661 667 
1331 856 803 809 
1332 726 813 814 
1333 814 813 681 
1334 754 810 679 
1335 864 769 821 
1336 95 94 603 
1337 828 686 684 
1338 790 713 753 
1339 837 851 816 
1340 663 664 770 
1341 841 831 842 
1342 156 818 153 
1343 116 115 706 
1344 661 124 658 
1345 666 127 680 
1346 133 132 700 
1347 733 772 765 
1348 786 834 731 
1349 826 827 855 
1350 100 99 621 
1351 829 739 770 
1352 751 709 772 
1353 759 833 786 
1354 834 152 151 
1355 850 837 648 
1356 150 862 863 
1357 621 99 743 
1358 124 123 658 
1359 149 750 862 
1360 146 148 843 
1361 146 843 840 
1362 147 146 840 
1363 843 852 848 
1364 759 779 833 
1365 827 847 852 
1366 93 92 610 
1367 98 97 744 
1368 123 660 658 
1369 128 127 666 
1370 845 710 788 
1371 765 714 761 
1372 715 716 832 
1373 838 776 791 
1374 696 717 806 
1375 836 824 822 
1376 612 815 727 
1377 798 626 800 
1378 742 850 627 
1379 845 788 640 
1380 692 757 758 
1381 750 751 862 
1382 824 717 718 
1383 782 775 785 
1384 640 788 642 
1385 702 700 685 
1386 752 730 790 
1387 794 705 693 
1388 792 746 798 
1389 145 144 855 
1390 786 844 758 
1391 825 807 827 
1392 801 704 687 
1393 859 724 787 
1394 787 159 160 
1395 804 860 732 
1396 757 803 856 
1397 783 856 857 
1398 857 856 846 
1399 725 143 142 
1400 690 829 860 
1401 690 860 804 
1402 664 860 770 
1403 803 804 678 
1404 804 732 678 
1405 857 846 861 
1406 861 846 747 
1407 861 747 813 
1408 813 747 683 
1409 747 810 748 
1410 814 749 725 
1411 751 734 862 
1412 831 832 838 
1413 864 668 769 
1414 668 659 769 
1415 698 669 662 
1416 743 98 744 
1417 780 774 782 
1418 844 702 685 
1419 714 766 716 
1420 728 791 730 
1421 738 795 816 
1422 671 835 693 
1423 109 593 628 
1424 131 130 828 
1425 828 130 739 
1426 777 787 160 
1427 758 844 691 
1428 140 789 141 
1429 819 858 596 
1430 798 652 626 
1431 677 732 670 
1432 835 794 693 
1433 847 817 849 
1434 852 847 848 
1435 634 768 657 
1436 720 811 795 
1437 131 828 684 
1438 815 752 764 
1439 697 864 821 
1440 842 728 854 
1441 598 858 865 
1442 126 667 680 
1443 691 844 685 
1444 811 797 795 
1445 144 863 855 
1446 699 801 674 
1447 864 698 672 
1448 863 826 855 
1449 731 834 162 
1450 840 843 848 
1451 858 820 866 
1452 817 836 866 
1453 839 840 848 
1454 734 826 863 
1455 127 126 680 
1456 858 866 865 
1457 655 837 796 
1458 141 777 160 
1459 820 839 849 
1460 839 848 849 
1461 820 849 866 
1462 836 822 865 
1463 866 836 865 
1464 849 817 866 
1465 650 845 867 
1466 812 722 641 
1467 605 96 608 
1468 8 161 597 
1469 610 92 599 
1470 154 153 609 
1471 95 603 608 
1472 755 607 604 
1473 100 621 618 
1474 601 823 604 
1475 93 610 602 
1476 607 756 606 
1477 819 596 609 
1478 729 612 613 
1479 603 94 602 
1480 622 854 613 
1481 743 614 615 
1482 822 601 611 
1483 616 101 618 
1484 598 865 611 
1485 711 773 656 
1486 642 788 656 
1487 797 812 641 
1488 92 91 599 
1489 91 597 599 
1490 91 8 597 
1491 94 93 602 
1492 96 95 608 
1493 756 622 606 
1494 854 729 613 
1495 823 755 604 
1496 153 819 609 
1497 101 100 618 
1498 621 743 615 
1499 865 822 611 
1500 606 622 623 
1501 621 615 620 
1502 800 650 867 
1503 788 711 656 
1504 619 646 617 
1505 641 722 868 
1506 706 845 650 
1507 649 629 631 
1508 647 104 869 
1509 773 649 651 
1510 625 633 630 
1511 642 655 653 
1512 640 641 868 
1513 799 800 868 
1514 639 595 600 
1515 627 850 631 
1516 593 108 600 
1517 107 639 600 
1518 119 633 654 
1519 646 764 638 
1520 633 118 630 
1521 117 624 630 
1522 632 660 636 
1523 122 6 636 
1524 6 121 636 
1525 744 605 623 
1526 612 727 620 
1527 712 627 643 
1528 617 647 869 
1529 655 796 653 
1530 616 617 869 
1531 103 5 870 
1532 5 102 870 
1533 594 712 643 
1534 605 606 623 
1535 615 612 620 
1536 797 641 653 
1537 624 706 650 
1538 800 626 650 
1539 628 593 643 
1540 104 103 869 
1541 632 120 654 
1542 722 799 868 
1543 850 648 631 
1544 648 655 651 
1545 108 107 600 
1546 120 119 654 
1547 634 632 654 
1548 764 637 638 
1549 118 117 630 
1550 655 656 651 
1551 646 638 645 
1552 616 869 870 
1553 102 616 870 
1554 660 122 636 
1555 614 744 623 
1556 727 619 620 
1557 868 800 867 
1558 656 773 651 
1559 796 797 653 
1560 845 640 867 
1561 644 647 645 
1562 869 103 870 
1563 640 868 867 
1564 638 644 645 
1565 871 873 872 
1566 874 876 875 
1567 874 154 876 
1568 877 42 878 
1569 871 872 879 
1570 880 882 881 
1571 874 880 881 
1572 880 874 875 
1573 882 880 883 
1574 154 161 876 
1577 886 888 887 
1578 889 891 890 
1579 891 889 892 
1580 888 886 893 
1581 42 43 878 
1582 877 878 894 
1583 46 47 895 
1584 896 898 897 
1585 895 47 899 
1586 900 902 901 
1587 890 891 894 
1588 898 896 903 
1589 900 872 902 
1590 887 888 904 
1591 873 871 904 
1595 909 891 892 
1596 910 911 893 
1597 911 910 912 
1598 896 913 903 
1599 913 914 903 
1600 903 914 878 
1601 897 898 915 
1602 916 918 917 
1603 918 919 917 
1604 920 919 895 
1605 919 920 917 
1606 921 916 922 
1607 923 925 924 
1608 926 913 896 
1609 927 929 928 
1610 930 921 922 
1611 931 933 932 
1612 934 928 935 
1613 926 896 936 
1614 923 924 937 
1615 938 940 939 
1616 940 941 939 
1617 942 144 145 
1618 943 156 153 
1619 139 138 920 
1620 944 909 945 
1621 946 39 945 
1622 947 162 151 
1624 938 950 949 
1625 148 942 145 
1626 951 953 952 
1627 953 931 954 
1628 158 930 157 
1629 88 87 880 
1630 955 956 902 
1631 918 916 921 
1632 872 955 902 
1633 957 959 958 
1634 960 961 151 
1635 933 155 156 
1636 962 963 925 
1637 964 966 965 
1638 967 968 160 
1639 969 970 929 
1640 874 943 154 
1641 956 931 971 
1642 971 931 932 
1643 972 974 973 
1644 975 957 142 
1645 964 965 937 
1646 976 971 948 
1647 936 897 919 
1648 977 939 978 
1649 159 957 967 
1650 979 971 932 
1651 979 932 943 
1652 871 35 887 
1653 979 943 874 
1654 961 947 151 
1655 957 958 967 
1656 888 929 927 
1657 40 41 944 
1658 41 42 877 
1659 138 137 917 
1660 966 980 968 
1661 962 925 926 
1662 972 973 981 
1663 981 970 969 
1664 969 929 888 
1665 920 138 917 
1666 143 149 950 
1667 975 950 938 
1668 959 938 939 
1669 144 949 150 
1670 940 942 982 
1671 982 148 983 
1672 941 982 984 
1673 951 147 953 
1674 934 951 952 
1675 953 933 931 
1676 954 931 956 
1677 965 985 889 
1678 954 986 952 
1679 873 955 872 
1680 886 37 910 
1681 136 7 922 
1682 137 916 917 
1683 930 987 921 
1684 159 967 160 
1686 38 39 946 
1687 143 975 142 
1688 956 971 976 
1689 154 943 153 
1690 947 930 158 
1691 936 919 918 
1692 919 897 895 
1694 35 36 887 
1695 36 37 886 
1696 962 926 988 
1697 954 956 955 
1698 956 976 902 
1699 926 936 988 
1701 913 923 914 
1702 923 937 890 
1703 936 896 897 
1704 963 989 924 
1705 989 980 964 
1706 933 156 932 
1707 924 964 937 
1708 961 987 947 
1709 965 990 985 
1710 986 955 873 
1711 988 918 921 
1714 983 951 934 
1715 152 140 960 
1716 152 960 151 
1717 980 140 141 
1718 960 989 963 
1719 989 964 924 
1720 985 992 991 
1721 991 972 993 
1722 7 157 922 
1723 938 949 940 
1724 983 146 951 
1725 964 980 966 
1726 986 927 928 
1727 157 930 922 
1728 972 992 974 
1729 972 981 993 
1731 143 950 975 
1732 942 949 144 
1733 948 971 979 
1734 974 977 978 
1736 37 38 910 
1737 940 949 942 
1738 933 147 155 
1739 953 954 952 
1740 954 955 986 
1741 947 158 162 
1742 952 986 928 
1743 39 40 945 
1744 44 45 898 
1745 944 877 891 
1746 992 990 994 
1747 981 973 970 
1748 981 969 911 
1749 981 911 993 
1750 137 136 916 
1751 936 918 988 
1752 8 90 161 
1753 949 950 150 
1754 940 982 941 
1755 982 942 148 
1756 982 983 984 
1757 983 148 146 
1758 951 146 147 
1759 925 963 924 
1760 913 925 923 
1761 937 889 890 
1762 960 963 961 
1763 961 962 987 
1764 928 929 935 
1765 975 959 957 
1766 991 992 972 
1767 973 974 978 
1768 967 958 995 
1769 975 938 959 
1770 41 877 944 
1771 950 149 150 
1772 953 147 933 
1773 40 944 945 
1774 932 156 943 
1775 968 141 160 
1776 944 891 909 
1777 941 984 996 
1778 926 925 913 
1779 960 140 989 
1780 984 934 935 
1781 968 980 141 
1782 968 967 995 
1783 983 934 984 
1784 914 923 890 
1786 36 886 887 
1787 38 946 910 
1788 958 959 977 
1789 989 140 980 
1790 965 889 937 
1791 974 992 994 
1792 947 987 930 
1793 987 988 921 
1794 995 958 994 
1795 965 966 990 
1796 985 990 992 
1797 990 995 994 
1798 142 957 159 
1799 970 973 996 
1800 987 962 988 
1801 990 966 995 
1802 916 136 922 
1803 966 968 995 
1804 996 984 935 
1805 977 974 994 
1806 961 963 962 
1807 958 977 994 
1808 959 939 977 
1809 934 952 928 
1810 996 973 978 
1811 939 941 978 
1812 929 970 935 
1813 941 996 978 
1814 986 873 927 
1815 970 996 935 
1816 880 87 883 
1817 979 874 881 
1818 161 90 876 
1820 88 880 875 
1821 882 948 881 
1822 946 945 997 
1823 90 89 876 
1825 876 89 875 
1826 948 979 881 
1827 89 88 875 
1828 945 909 997 
1830 985 991 892 
1831 891 877 894 
1832 886 910 893 
1834 878 914 894 
1835 910 946 912 
1836 872 900 879 
1837 969 888 893 
1840 898 45 915 
1842 898 903 999 
1843 991 993 1000 
1844 920 895 899 
1845 47 3 899 
1846 3 139 899 
1847 888 927 904 
1852 44 898 999 
1853 927 873 904 
1854 993 997 1000 
1855 889 985 892 
1856 914 890 894 
1857 871 887 904 
1859 46 895 915 
1860 911 969 893 
1861 993 911 912 
1862 878 43 999 
1864 45 46 915 
1865 895 897 915 
1866 43 44 999 
1867 902 976 901 
1868 903 878 999 
1869 997 993 912 
1871 892 991 1000 
1874 139 920 899 
1875 946 997 912 
1877 997 909 1000 
1878 909 892 1000 
2 7 2 48
5 185 186 194 
13 197 205 204 
1 185 187 186 
78 35 192 279 
101 257 258 201 
108 35 34 192 
306 224 253 311 
312 228 224 311 
153 36 35 279 
154 213 36 279 
255 253 204 311 
260 50 49 198 
264 257 201 218 
267 186 223 194 
271 258 217 230 
275 198 49 205 
277 213 279 229 
290 185 257 218 
293 253 197 204 
298 201 258 230 
14 197 198 205 
18 211 213 212 
22 216 217 211 
26 223 225 224 
29 213 211 227 
30 186 225 223 
31 187 185 218 
32 228 223 224 
33 211 217 227 
34 212 213 229 
35 217 216 230 
1575 883 885 884 
1576 882 883 884 
1592 905 900 901 
1623 906 948 882 
1685 905 32 900 
1700 976 948 906 
1713 32 33 900 
1735 34 35 871 
1819 86 885 883 
1824 87 86 883 
1829 906 882 884 
1838 34 871 879 
1839 900 33 879 
1841 976 906 901 
1863 33 34 879 
1870 901 906 907 
1880 905 901 907 
$EndElements
$GhostElements
48
5 2 1 1
13 2 1 1
1 2 1 1
78 2 1 1
101 2 1 1
108 2 1 1
306 2 1 1
312 2 1 1
153 2 1 1
154 2 1 1
255 2 1 1
260 2 1 1
264 2 1 1
267 2 1 1
271 2 1 1
275 2 1 1
277 2 1 1
290 2 1 1
293 2 1 1
298 2 1 1
14 2 1 1
18 2 1 1
22 2 1 1
26 2 1 1
29 2 1 1
30 2 1 1
31 2 1 1
32 2 1 1
33 2 1 1
34 2 1 1
35 2 1 1
1575 2 1 1
1576 2 1 1
1592 2 1 1
1623 2 1 1
1685 2 1 1
1700 2 1 1
1713 2 1 1
1735 2 1 1
1819 2 1 1
1824 2 1 1
1829 2 1 1
1838 2 1 1
1839 2 1 1
1841 2 1 1
1863 2 1 1
1870 2 1 1
1880 2 1 1
$EndGhostElements
