$MeshFormat
4.1 0 8
$EndMeshFormat
$PhysicalNames
2
2 100 "Left"
2 200 "Right"
$EndPhysicalNames
$Entities
6 7 2 0
1 0 0 0 0 
2 1 0 0 0 
3 1 1 0 0 
4 0 1 0 0 
5 2 0 0 0 
6 2 1 0 0 
1 0 0 0 0 0 0 0 2 1 -2 
2 0 0 0 0 0 0 0 2 2 -3 
3 0 0 0 0 0 0 0 2 3 -4 
4 0 0 0 0 0 0 0 2 4 -1 
5 0 0 0 0 0 0 0 2 2 -5 
6 0 0 0 0 0 0 0 2 5 -6 
7 0 0 0 0 0 0 0 2 6 -3 
1 0 0 0 0 0 0 1 100 4 1 2 3 4 
2 0 0 0 0 0 0 1 200 4 5 6 7 -2 
$EndEntities
$PartitionedEntities
2
0
0 2 4 0
8 2 2 2 1 2 1 0 0 1.150249294339321 0.4 0 0 0 
9 2 1 2 1 2 0.9 0.4 0 1 1 0 0 0 
3 2 1 1 2 0 0 0 1 1 0 1 100 1 -9 
4 2 1 1 1 0.9 0.4 0 1 1 0 1 100 1 9 
5 2 2 1 1 1 0 0 2 1 0 1 200 1 8 
6 2 2 1 2 1 0 0 1.150249294339321 0.35 0 1 200 1 -8 
$EndPartitionedEntities
$Nodes
4 513 1 1001
1 8 0 11
976
901
879
871
900
35
36
883
882
948
87
1.126495766035927 0.1781394473282699 0
1.083974596215562 0.1824573519457051 0
1.034157932237862 0.275 0
1.047540889183242 0.3172940119650965 0
1.047577479821665 0.2240761685746961 0
1 0.35 0
1 0.4 0
1.122900188550633 0.04254350174487576 0
1.12749842767914 0.09052181425901568 0
1.150249294339321 0.1343537005720948 0
1.15 0 0
1 9 0 13
258
257
223
228
213
227
185
194
205
49
217
204
311
0.9567905049450806 0.5760320399845857 0
0.9570380463989128 0.6262843313391506 0
0.9523308222758422 0.7755653143404657 0
0.9601698491656763 0.8279237746757162 0
0.9523235419178089 0.4290187136245558 0
0.9666551565157939 0.475 0
0.9524591108167564 0.682705988034904 0
0.9658420677621358 0.725 0
0.9204556716363043 0.9545887732382461 0
0.9 1 0
0.952332676247073 0.5219796403650591 0
0.9231359713964774 0.8967568704146378 0
0.9312529458225653 0.8530864584127114 0
2 3 0 479
187
186
188
190
189
191
192
34
193
196
195
197
198
199
201
200
202
203
206
208
207
209
210
211
212
33
214
30
29
215
216
218
219
221
220
222
225
224
226
229
230
231
232
233
234
235
236
182
173
237
238
239
27
26
240
164
241
242
243
245
244
246
247
166
165
248
179
178
249
250
251
252
253
254
255
256
24
10
259
260
262
261
264
263
183
265
184
266
267
268
270
269
271
272
273
275
274
276
277
169
278
177
279
9
53
280
281
282
284
283
285
286
287
163
288
289
180
181
290
291
292
293
25
28
32
31
294
295
296
298
297
299
300
175
301
168
167
302
303
176
305
306
174
170
307
51
50
309
310
171
172
52
312
2
314
316
315
317
319
318
79
321
320
322
323
324
325
327
326
328
330
329
331
332
334
333
335
336
337
338
339
340
342
341
343
345
344
346
348
347
349
351
350
352
80
353
354
355
356
357
358
359
360
361
362
363
364
365
366
367
368
369
370
372
371
373
374
375
376
377
378
379
380
381
382
15
384
383
385
386
388
387
389
390
392
391
71
70
393
394
396
395
397
398
400
399
401
403
402
404
69
405
406
408
407
409
411
410
412
413
414
415
416
418
417
419
421
420
422
423
424
425
426
427
428
429
431
430
432
434
433
435
22
436
437
438
439
440
441
442
444
443
445
447
446
448
449
451
450
452
453
454
455
456
458
457
459
460
461
462
463
465
464
466
467
468
469
471
470
472
473
474
475
477
476
479
478
480
482
481
54
483
484
486
485
488
487
489
490
491
492
493
494
495
496
21
23
68
72
497
498
499
500
501
503
502
504
505
506
74
73
507
508
510
509
511
512
513
515
514
516
518
517
519
521
520
522
523
524
525
526
527
20
63
62
65
64
528
529
530
531
532
17
16
533
534
18
535
60
59
536
537
538
14
13
539
540
542
541
543
544
545
546
547
548
549
550
551
552
553
554
555
556
557
558
559
560
561
76
75
82
81
562
563
564
565
78
84
83
566
567
568
19
67
569
570
571
57
56
572
574
573
575
55
576
577
578
579
580
581
582
583
584
585
12
586
77
587
66
11
61
58
588
4
589
1
590
591
592
0.8995220148268555 0.6912147583890562 0
0.9249203205360866 0.7315775338411219 0
0.7749999999999957 0.9093266739736614 0
0.7274026143976962 0.9003677968991808 0
0.7267501711977524 0.9464706644106191 0
0.7751275634983781 0.9597094246666246 0
0.9566592974282583 0.3226787073898404 0
1 0.3 0
0.9518641299987876 0.2658449089928192 0
0.825 0.9566987298107781 0
0.8249420237432158 0.9063972791991973 0
0.8738863920597681 0.9128470182176518 0
0.8742904335926673 0.9655346905386171 0
0.874999999999998 0.649519052838331 0
0.9091290431963532 0.6028477457144521 0
0.8516007337814886 0.6054910965812097 0
0.672835511998082 0.9550994813476893 0
0.687738390891862 0.9063904740211495 0
0.8750000000000004 0.3031088913245554 0
0.8522329099369259 0.3470084679281475 0
0.9092857687976972 0.3481297030563452 0
0.8753705607323583 0.3900707019114114 0
0.8754753594925866 0.5619264329871496 0
0.9242548825481681 0.4757504937567077 0
0.8999999999999992 0.4330127018922213 0
1 0.25 0
0.9190255570915294 0.2999250228383536 0
1 0.1 0
1 0.05 0
0.9539496801499476 0.08144394724531956 0
0.8992179206083348 0.5191779345769669 0
0.9196729781443864 0.6499999999999999 0
0.9012584132604375 0.1733950544963769 0
0.955543497737481 0.1743449231938203 0
0.9249999999999996 0.1299038105676663 0
0.9633974596215561 0.03660254037844402 0
0.8993581146825609 0.7769132438121243 0
0.9160254037844364 0.8175426480542973 0
0.9247651443039027 0.2181310985094028 0
0.9185000593506896 0.3946914947544264 0
0.9184135998993302 0.5568314757192605 0
0.8994881003730646 0.2595030130522955 0
0.8750956138689049 0.2167608064198378 0
0.9665063509461093 0.1250000000000005 0
0.8500620252760259 0.2598242407579541 0
0.8000723628220301 0.2598270106950573 0
0.8250383336611598 0.2165547617221225 0
0.7249999999999998 0.2165063509461098 0
0.7 0.2598076211353318 0
0.7500264660321312 0.2598147126872685 0
0.7250123476243941 0.3031121998605389 0
0.7749999999999995 0.2165063509461097 0
0.9 0 0
0.85 0 0
0.8746150391695422 0.04307901295012995 0
0.6750024009269652 0.3031095346509952 0
0.9230662432702592 0.04218481522075929 0
0.8996777072117096 0.08641646455036706 0
0.825 0.04330127018922192 0
0.7999999999999998 0.086602540378444 0
0.8499462845352848 0.08657152774043125 0
0.8249999999999996 0.129903810567666 0
0.6499999999999991 0.4330127018922195 0
0.6249999999999992 0.3897114317029973 0
0.5999999999999991 0.4330127018922192 0
0.775 0.04330127018922203 0
0.725 0.04330127018922214 0
0.7499999999999999 0.08660254037844417 0
0.6749999999999994 0.3897114317029978 0
0.7750740857463643 0.3031287425404633 0
0.7999999999999982 0.6062177826491083 0
0.824999999999998 0.6495190528383306 0
0.8940401989275786 0.8616311641379735 0
0.8499999999999959 0.8657510338813841 0
0.8251765385437125 0.5627705289955467 0
0.850061760122059 0.4330725802602896 0
0.75 0 0
0.7 0 0
0.8749999999999996 0.129903810567666 0
0.7749999999999972 0.7361215932167737 0
0.8249999999999972 0.7361215932167743 0
0.7999999999999976 0.6928203230275521 0
0.7999999999999968 0.779422863405996 0
0.849999999999997 0.7794228634059965 0
0.5999999999999982 0.6062177826491068 0
0.6499999999999982 0.6062177826491071 0
0.6249999999999984 0.5629165124598851 0
0.8499999999999986 0.5196152422706647 0
0.7999999999999987 0.5196152422706644 0
0.7999999999999958 0.8657902295818203 0
0.7749999999999964 0.8227241335952176 0
0.749999999999996 0.8659862080840026 0
0.7999999999999999 0.3464101615137766 0
0.8253721516561547 0.3032086090602834 0
0.6999999999999982 0.6062177826491075 0
0.7499999999999982 0.6062177826491078 0
0.7249999999999984 0.5629165124598857 0
0.7499999999999969 0.7794228634059954 0
0.7249999999999973 0.7361215932167733 0
0.699999999999997 0.779422863405995 0
0.8499999999999994 0.1732050807568879 0
0.624999999999999 0.4763139720814413 0
0.9566987298107781 0.375 0
0.65 1 0
0.7 1 0
0.7499999999999976 0.6928203230275516 0
0.7749999999999979 0.64951905283833 0
0.724999999999999 0.4763139720814419 0
0.7499999999999992 0.4330127018922201 0
0.6999999999999992 0.4330127018922199 0
0.8749999999999989 0.4763139720814429 0
0.7000020579373987 0.34641071293644 0
0.7250003429895659 0.3897115236067754 0
0.6499999999999996 0.3464101615137756 0
0.8249999999999964 0.822724133595218 0
0.824999999999999 0.4763139720814425 0
0.625 0.9566987298107782 0
0.6493583485359358 0.9146568880626789 0
0.6749999999999989 0.4763139720814417 0
0.8749999999999972 0.7361215932167747 0
0.7749999999999995 0.3897114317029984 0
0.7499999999999999 0.3464101615137762 0
0.8 0 0
0.95 0 0
1 0.2 0
1 0.15 0
0.8249999999999995 0.3897114317029987 0
0.8499999999999975 0.6928203230275526 0
0.7999999999999992 0.4330127018922204 0
0.7749999999999985 0.5629165124598861 0
0.7499999999999987 0.5196152422706639 0
0.6999999999999987 0.5196152422706637 0
0.774999999999999 0.4763139720814422 0
0.624999999999998 0.6495190528383288 0
0.6749999999999979 0.6495190528383292 0
0.7749999999999997 0.129903810567666 0
0.7499999999999996 0.1732050807568877 0
0.7999999999999995 0.1732050807568878 0
0.6749999999999985 0.5629165124598854 0
0.6499999999999988 0.5196152422706634 0
0.8735042339640697 0.8218148243545556 0
0.6999999999999976 0.6928203230275513 0
0.6499999999999978 0.6928203230275509 0
0.6749999999999974 0.7361203229857403 0
0.7254004357329464 0.822235799080228 0
0.8 1 0
0.85 1 0
0.7249999999999979 0.6495190528383296 0
0.7024026143976958 0.8631345923949412 0
0.6754671750217716 0.8219033785743147 0
0.6494218501920954 0.8682123419570085 0
0.75 1 0
0.9664345544080343 0.2216641861392085 0
1 0 0
0.1002768047118022 0.4327497027559344 0
0.04430959908926113 0.4272372841433814 0
0.08405597845742036 0.481542443681605 0
0.175226595577591 0.9539328180958228 0
0.2193348401705569 0.9087612864891439 0
0.1699159160136286 0.8980824636794337 0
0 0.3 0
0.04074683589492384 0.3240788250855712 0
0.04811063169272767 0.2652366790616983 0
0.03399241969200711 0.4765497358311931 0
0.6028265746916829 0.9123749062503672 0
0.5999999999999964 0.8646143585687227 0
0.274999999999995 0.9093266739736582 0
0.2269332845580029 0.9573059390998889 0
0.2753866569115996 0.964666268576865 0
0.4249999999999945 0.9093266739736611 0
0.375 0.9581097750264937 0
0.4249999999999997 0.9598583331105457 0
0.3749999999999946 0.9093266739736598 0
0.1249999999999978 0.6495190528383255 0
0.0933544663869732 0.6962763231947402 0
0.1499999999999972 0.6928203230275476 0
0.325 0.9566987298107781 0
0.3250093667234806 0.9062100824465236 0
0.475 0.9566987298107781 0
0.4734014517573324 0.9013111317167055 0
0.5173394368820917 0.9092387115712187 0
0.5288679586780372 0.9551061079072118 0
0.5771644880019172 0.9550994813476894 0
0.5628253074853318 0.9044162559268575 0
0.09322618195719123 0.6041115289419698 0
0.0448683284893584 0.5774570238381083 0
0.04330127018922181 0.625 0
0.08507973034284561 0.9002977454972303 0
0.07959128095287016 0.9547151376279602 0
0.1287533767270944 0.9251806161445918 0
0.04528486237204021 0.07959128095286938 0
0.07462213947770946 0.1281001992784758 0
0.09955981785559737 0.08489746056337383 0
0.0805617049867221 0.3044379262807068 0
0 0.25 0
0.08317250985817315 0.5575595862005236 0
0.1266390958535543 0.7306546517570608 0
0.07942745379376015 0.6499813809950071 0
0.1249999999999998 0.9665063509461096 0
0.03294499901686199 0.1263667525847511 0
0.04481799323456015 0.1741422826924102 0
0.09913633220576118 0.173361281079472 0
0.04962803636848245 0.5235148068549792 0
0.1018720973828832 0.5205300842544014 0
0.07500000000000095 0.2165063509461057 0
0.07787739510504099 0.3874061488863424 0
0.07677663732560158 0.04124885095992981 0
0.04105529476190684 0.9234663237124892 0
0.1269078917081933 0.772754603049532 0
0.1711737996633843 0.7422698825652277 0
0.1642917353335535 0.7876742006480066 0
0.2032556688262271 0.8641457425112182 0
0.4500013014417455 0.8657805162792656 0
0.4749999999999968 0.8227241335952158 0
0.4250038385772659 0.8226640639128389 0
0.4996665204628301 0.8655110269486043 0
0.3999999999999969 0.7794228634059936 0
0.4500006397628752 0.7794128517922642 0
0.375013921371366 0.8226668828214488 0
0.350016508688635 0.7794030008367872 0
0.5479978213352478 0.8645950754903238 0
0.5249999999999968 0.822724133595216 0
0.6499999999999995 0.2598076211353314 0
0.6249999999999996 0.3031088913245534 0
0.5999999999999993 0.3464101615137752 0
0.25 0 0
0.2250000000000003 0.04330127018922109 0
0.2750000000000011 0.04330127018922109 0
0.3250505976965996 0.8226730570707799 0
0.5000000000000006 0.08660254037844339 0
0.4750000000000004 0.04330127018922181 0
0.4500000000000003 0.08660254037844284 0
0.475000000000001 0.129903810567665 0
0.2250000000000014 0.1299038105676633 0
0.2500000000000014 0.08660254037844201 0
0.2000000000000008 0.08660254037844217 0
0 0.7 0
0 0.75 0
0.04330127018922247 0.7250000000000001 0
0.3999999999999995 0.4330127018922179 0
0.3499999999999996 0.4330127018922174 0
0.3749999999999992 0.4763139720814397 0
0.04225535043541673 0.675 0
0.4750000000000002 0.3031088913245527 0
0.4250000000000004 0.3031088913245522 0
0.4499999999999998 0.3464101615137744 0
0.1502113175154902 0.60609577842465 0
0.1750352195859133 0.6494987188009169 0
0.2000410895168996 0.6061940596054604 0
0.400007808650493 0.8659671239691162 0
0 0.8 0
0.0432156460025821 0.7749981080977749 0
0.4499999999999981 0.6062177826491058 0
0.4749999999999979 0.6495190528383279 0
0.4999999999999983 0.6062177826491062 0
0.5749999999999974 0.7361150606000328 0
0.5999999999999971 0.7793836677055579 0
0.6249999999999974 0.7361139718305766 0
0.424999999999999 0.4763139720814401 0
0.5749999999999991 0.3897114317029969 0
0.5499999999999989 0.4330127018922189 0
0.3000345330638529 0.7794120152889592 0
0.5250000000000008 0.1299038105676653 0
0.5500000000000004 0.1732050807568872 0
0.5750000000000004 0.1299038105676653 0
0.3000000000000015 0.08660254037844295 0
0.149999999999999 0.5196152422706599 0
0.1268674800920173 0.4772940244893759 0
0.1993681698748814 0.6938416489127228 0
0.08595852637501233 0.7509402347402476 0
0.3749999999999974 0.7361215932167711 0
0.2249999999999981 0.6495190528383262 0
0.5999999999999986 0.519615242270663 0
0.3249999999999974 0.7361215932167708 0
0.2749999999999975 0.7361215932167704 0
0.1260633023247254 0.3024915584869413 0
0.1500000000000002 0.3464101615137722 0
0.175197481615708 0.3029924531774728 0
0.3000000000000003 0.3464101615137733 0
0.325 0.3897114317029954 0
0.3500000000000002 0.3464101615137736 0
0.625 0.04330127018922186 0
0.6 0 0
0.5750000000000002 0.04330127018922181 0
0.2023819558889231 0.7807980862796607 0
0.2249999999999975 0.73612159321677 0
0.6999999999999998 0.08660254037844395 0
0.2750000000000005 0.3031088913245512 0
0.3250000000000005 0.3031088913245515 0
0.3249999999999993 0.4763139720814393 0
0.2749999999999994 0.4763139720814389 0
0.299999999999999 0.519615242270661 0
0.225 0.3897114317029947 0
0.2500000000000002 0.346410161513773 0
0.2000329136026182 0.3463907551559263 0
0.2250000000000005 0.3031088913245508 0
0.1501215873695207 0.259726325090471 0
0.5499999999999983 0.6062177826491065 0
0.574999999999998 0.6495190528383286 0
0.5499999999999972 0.7794228634059941 0
0.4999999999999972 0.7794228634059938 0
0.1753112466820024 0.4764773141494278 0
0.5250000000000002 0.04330127018922186 0
0.6749999999999996 0.2165063509461095 0
0.5499999999999993 0.346410161513775 0
0.5249999999999991 0.3897114317029968 0
0.499999999999999 0.4330127018922186 0
0.5749999999999988 0.4763139720814409 0
0.5249999999999988 0.4763139720814406 0
0.4749999999999989 0.4763139720814405 0
0.4499999999999992 0.4330127018922183 0
0.4749999999999994 0.3897114317029966 0
0.4249999999999997 0.3897114317029962 0
0.4999999999999977 0.6928203230275499 0
0.524999999999998 0.6495190528383282 0
0.649999999999997 0.7794228634059946 0
0.2499999999999984 0.6062177826491045 0
0.2749999999999987 0.5629165124598827 0
0.2249999999999988 0.5629165124598824 0
0.1749999999999988 0.5629165124598821 0
0.6249999999999968 0.8225897945900067 0
0.5999999999999978 0.6928203230275505 0
0.5499999999999986 0.5196152422706626 0
0.5249999999999985 0.5629165124598844 0
0.5749999999999984 0.5629165124598847 0
0.4749999999999984 0.5629165124598841 0
0.4249999999999985 0.5629165124598837 0
0.6749999999999999 0.04330127018922192 0
0.2000000000000008 0.2598076211353288 0
0.1749962737895255 0.2164971405031468 0
0.6 1 0
0.04330127018922192 0.825 0
0.6499999999999999 0.08660254037844373 0
0.6000000000000001 0.08660254037844362 0
0.625 0.1299038105676655 0
0.6499999999999997 0.1732050807568877 0
0.6249999999999996 0.2165063509461094 0
0.5999999999999994 0.2598076211353313 0
0.5249999999999974 0.7361215932167721 0
0.1248560553676276 0.2165323843332042 0
0.6749999999999997 0.1299038105676658 0
0.7249999999999996 0.1299038105676658 0
0.4249999999999974 0.7361215932167714 0
0.249999999999997 0.7794228634059921 0
0.2751566006865285 0.822710121417449 0
0.55 0 0
0.65 0 0
0 0.85 0
0 0.65 0
0.2999999999999984 0.6062177826491049 0
0.3499999999999984 0.6062177826491052 0
0.3249999999999981 0.649519052838327 0
0.1999999999999997 0.4330127018922165 0
0.2499999999999997 0.4330127018922168 0
0.175 0.3897114317029943 0
0.1499999999999997 0.433012701892216 0
0.2500000000000008 0.2598076211353291 0
0.3000000000000008 0.2598076211353295 0
0.3500000000000007 0.2598076211353298 0
0 0.55 0
0 0.6 0
0.4999999999999987 0.5196152422706625 0
0.3499999999999978 0.692820323027549 0
0.3999999999999977 0.6928203230275494 0
0.374999999999998 0.6495190528383272 0
0.2499999999999991 0.5196152422706606 0
0.4249999999999979 0.6495190528383276 0
0.3249999999999987 0.5629165124598832 0
0.3749999999999987 0.5629165124598835 0
0.349999999999999 0.5196152422706614 0
0.4750000000000007 0.2165063509461086 0
0.4250000000000008 0.2165063509461083 0
0.4500000000000005 0.2598076211353305 0
0.400000000000001 0.1732050807568862 0
0.3750000000000009 0.1299038105676645 0
0.3500000000000011 0.1732050807568861 0
0.1500000000000014 0.1732050807568847 0
0.3500329305316108 0.8657329756662714 0
0.2999999999999997 0.4330127018922171 0
0.5999999999999999 0.1732050807568875 0
0.1008734688494943 0.2592938114790855 0
0.08608879525860397 0.7999886485866492 0
0.5 0 0
0.15 1 0
0.2 1 0
0.05000000000000004 1 0
0.09999999999999998 1 0
0.5499999999999977 0.6928203230275503 0
0.4499999999999977 0.6928203230275496 0
0.1999999999999991 0.5196152422706602 0
0.275 0.389711431702995 0
0.4000000000000006 0.2598076211353301 0
0.35 0 0
0.3 0 0
0.3250000000000003 0.04330127018922181 0
0.425 0.04330127018922181 0
0.4 0 0
0.3750000000000002 0.04330127018922164 0
0.3 1 0
0.35 1 0
0.2749999999999981 0.6495190528383266 0
0.2999999999999978 0.6928203230275487 0
0.1262679050929503 0.5621844871131592 0
0.2 0 0
0.15 0 0
0.1750000000000001 0.04330127018922081 0
0.2249999999999994 0.4763139720814386 0
0.2500000000000014 0.1732050807568853 0
0.2750000000000016 0.129903810567664 0
0.2000000000000015 0.173205080756885 0
0.1750000000000012 0.1299038105676633 0
0.450000000000001 0.1732050807568865 0
0.5000000000000008 0.1732050807568871 0
0.4250000000000008 0.1299038105676645 0
0.4000000000000001 0.346410161513774 0
0.1250000000000015 0.1299038105676628 0
0.4000000000000004 0.08660254037844306 0
0.6999999999999996 0.1732050807568877 0
0.3750000000000008 0.216506350946108 0
0.3000000000000013 0.1732050807568857 0
0.3750000000000004 0.3031088913245518 0
0.08612848246201787 0.8499318915198936 0
0.4499999999999987 0.5196152422706621 0
0.4749999999999974 0.7361215932167717 0
0.2499999999999978 0.6928203230275483 0
0.2750000000000011 0.2165063509461074 0
0.2250000000000011 0.216506350946107 0
0.5749999999999968 0.822488959392597 0
0 0.45 0
0 0.5 0
0 0.15 0
0 0.2 0
0.04306533549328051 0.8745913491193612 0
0.5499999999999998 0.2598076211353313 0
0.5749999999999998 0.2165063509461095 0
0.5749999999999995 0.3031088913245532 0
0 0.35 0
0 0.05000000000000004 0
0 0.09999999999999998 0
0.1277910738106815 0.8766719936932785 0
0.3999999999999982 0.6062177826491055 0
0.4999999999999996 0.3464101615137749 0
0.45 0 0
0 0.9 0
0.325000000000001 0.2165063509461078 0
0.1250000000000001 0.3897114317029939 0
0.3749999999999999 0.3897114317029956 0
0.45 1 0
0.5 1 0
0.2259396041191893 0.8226400605286224 0
0.2507253122719885 0.8656957793648403 0
0.3001469854930832 0.8657329568155907 0
0.3250000000000014 0.1299038105676646 0
0.55 1 0
0.1039886660743011 0.34672977707684 0
0.1813830504837609 0.8233434025183426 0
0.5250000000000002 0.2165063509461094 0
0.5500000000000007 0.08660254037844345 0
0.5000000000000002 0.259807621135331 0
0.3999999999999988 0.5196152422706618 0
0.1499266363092668 0.08631836040926377 0
0.1253230599081162 0.04273379219590534 0
0.5249999999999998 0.3031088913245532 0
0.350000000000001 0.08660254037844323 0
0.1 0 0
0.06569386420549483 0.3518707225105338 0
0 0.4 0
0.133960710003776 0.8243095807368928 0
0 0.95 0
0.05 0 0
0.25 1 0
0.4 1 0
0.03477617481834561 0.375 0
0 1 0
0.0366025403784439 0.963397459621556 0
0 0 0
0.03660254037844396 0.0366025403784439 0
0.03384098302246208 0.2214062241328784 0
0.1632612838276148 0.8573106366278331 0
2 6 0 10
885
884
905
906
907
908
86
85
998
1001
1.07197213537183 0.0414496343161741 0
1.081301360023563 0.09433434647164457 0
1.039830150834323 0.1720762253242841 0
1.105208841328076 0.1377917042030669 0
1.069448409709885 0.141938679744616 0
1.0369271001479 0.1230337707783795 0
1.1 0 0
1.05 0 0
1.037739641837587 0.07417583450807158 0
1.036237255482231 0.03623725548223122 0
$EndNodes
$Elements
2 940 1 1880
2 3 2 907
1 185 187 186 
2 188 190 189 
3 188 189 191 
4 192 34 193 
5 185 186 194 
6 188 196 195 
7 196 188 191 
8 196 197 195 
9 197 196 198 
10 199 201 200 
11 202 189 203 
12 189 190 203 
13 197 205 204 
14 197 198 205 
15 206 208 207 
16 208 209 207 
17 201 210 200 
18 211 213 212 
19 34 33 193 
20 192 193 214 
21 30 29 215 
22 216 217 211 
23 201 199 218 
24 219 221 220 
25 215 29 222 
26 223 225 224 
27 206 207 214 
28 221 219 226 
29 213 211 227 
30 186 225 223 
31 187 185 218 
32 228 223 224 
33 211 217 227 
34 212 213 229 
35 217 216 230 
36 231 226 232 
37 226 219 232 
38 226 231 193 
39 220 221 233 
40 234 231 232 
41 235 234 236 
42 182 173 237 
43 173 238 237 
44 234 232 236 
45 235 239 237 
46 239 235 236 
47 239 182 237 
48 27 26 240 
49 238 173 164 
50 241 242 215 
51 243 245 244 
52 245 246 244 
53 247 166 165 
54 248 179 178 
55 166 247 249 
56 241 27 240 
57 250 235 237 
58 251 252 200 
59 242 241 240 
60 253 254 197 
61 251 200 255 
62 212 209 256 
64 24 10 179 
65 259 219 220 
66 260 262 261 
67 262 264 263 
68 183 265 184 
69 266 267 255 
70 268 270 269 
71 271 272 250 
72 188 269 190 
73 200 210 255 
74 273 275 274 
75 276 277 169 
76 246 278 259 
77 247 165 177 
78 35 192 279 
80 9 53 202 
81 280 260 261 
82 251 281 252 
83 282 284 283 
84 259 220 242 
85 285 212 256 
86 286 249 287 
89 166 249 163 
90 264 288 263 
91 272 235 250 
92 163 249 286 
93 26 243 240 
94 245 243 248 
95 289 266 285 
96 163 286 164 
97 180 202 181 
98 246 259 244 
99 245 248 178 
100 290 282 283 
101 257 258 201 
102 291 262 263 
103 292 293 287 
104 268 269 188 
105 26 25 243 
106 28 27 241 
107 32 31 221 
108 35 34 192 
109 271 294 208 
110 280 261 281 
111 260 264 262 
112 261 262 295 
113 293 238 286 
114 24 179 248 
115 284 296 292 
116 293 286 287 
117 251 275 281 
118 274 298 297 
119 299 297 282 
120 300 289 296 
121 208 294 209 
122 272 234 235 
123 293 250 238 
124 259 278 219 
125 281 261 252 
126 286 238 164 
128 289 267 266 
129 300 296 284 
130 284 292 287 
131 299 282 290 
132 242 220 215 
133 183 175 265 
134 265 301 273 
135 168 167 302 
136 274 299 303 
137 297 298 267 
138 300 267 289 
139 300 284 282 
140 210 266 255 
141 272 206 234 
142 259 242 244 
143 299 290 176 
145 184 265 303 
146 302 167 239 
147 289 285 256 
148 247 283 249 
149 25 24 248 
152 288 270 268 
153 36 35 279 
154 213 36 279 
156 9 202 180 
157 279 192 207 
158 288 268 254 
159 305 254 253 
160 280 306 277 
161 306 174 170 
162 260 276 264 
163 264 270 288 
164 269 270 307 
165 295 262 291 
166 288 254 305 
167 219 278 232 
168 305 225 263 
169 186 291 225 
170 252 199 200 
174 51 50 196 
175 209 294 256 
176 271 208 272 
177 246 302 278 
178 249 283 287 
181 301 175 174 
182 265 273 303 
183 309 301 306 
184 309 306 280 
185 280 277 260 
186 239 167 182 
187 297 267 300 
188 292 296 294 
189 292 271 293 
190 216 266 210 
191 234 206 231 
192 295 199 252 
193 187 291 186 
194 225 291 263 
196 265 175 301 
197 273 301 309 
198 273 274 303 
199 275 309 281 
200 298 275 251 
201 274 297 299 
202 298 251 255 
203 267 298 255 
204 297 300 282 
205 296 289 256 
206 283 284 287 
207 285 266 216 
208 303 299 176 
209 285 211 212 
210 290 283 247 
211 176 290 177 
212 309 280 281 
213 310 269 307 
214 184 303 176 
215 168 246 245 
216 243 25 248 
217 260 277 276 
218 274 275 298 
219 293 271 250 
220 302 239 236 
221 295 187 199 
222 238 250 237 
223 264 276 270 
224 292 294 271 
225 168 302 246 
226 276 169 307 
227 285 216 211 
228 261 295 252 
229 295 291 187 
230 306 301 174 
231 294 296 256 
232 272 208 206 
233 243 244 240 
234 244 242 240 
235 290 247 177 
236 288 305 263 
237 270 276 307 
238 277 306 170 
239 190 269 310 
240 307 169 171 
241 310 307 171 
242 169 277 170 
243 273 309 275 
244 232 278 236 
245 168 245 178 
246 278 302 236 
248 197 254 195 
249 196 50 198 
250 51 196 191 
251 310 171 172 
252 202 53 189 
253 268 188 195 
254 181 202 203 
255 253 204 311 
257 53 52 189 
258 189 52 191 
259 52 51 191 
260 50 49 198 
261 254 268 195 
262 207 209 229 
263 207 192 214 
264 257 201 218 
266 193 231 214 
267 186 223 194 
268 310 172 203 
271 258 217 230 
272 221 31 233 
275 198 49 205 
276 305 253 224 
277 213 279 229 
278 221 226 312 
279 172 181 203 
280 241 215 222 
282 2 28 222 
284 29 2 222 
286 32 221 312 
287 199 187 218 
288 210 201 230 
289 231 206 214 
290 185 257 218 
291 30 215 233 
292 279 207 229 
293 253 197 204 
294 209 212 229 
295 216 210 230 
296 193 33 312 
298 201 258 230 
299 31 30 233 
300 215 220 233 
302 33 32 312 
303 225 305 224 
304 226 193 312 
306 224 253 311 
308 28 241 222 
309 190 310 203 
312 228 224 311 
313 314 316 315 
314 317 319 318 
315 79 321 320 
316 316 322 315 
317 323 181 172 
318 324 323 172 
319 325 327 326 
320 325 319 327 
321 328 330 329 
322 328 331 330 
323 332 334 333 
324 335 325 326 
325 325 335 336 
326 337 328 329 
327 328 337 338 
328 319 317 327 
329 337 339 338 
330 339 337 340 
331 335 331 336 
332 331 335 330 
333 340 342 341 
334 339 340 341 
335 343 345 344 
336 346 348 347 
337 349 351 350 
338 320 321 352 
339 80 79 320 
340 345 343 353 
341 333 334 354 
342 334 332 355 
343 347 348 356 
344 351 349 357 
345 358 359 351 
346 347 317 318 
347 360 361 315 
348 359 358 362 
349 314 363 316 
350 349 350 364 
351 348 346 365 
352 343 344 355 
353 366 367 354 
354 322 360 315 
355 367 366 368 
356 361 360 353 
357 358 351 357 
358 317 347 356 
359 318 319 369 
360 370 372 371 
361 372 370 373 
362 374 371 375 
363 371 372 375 
364 374 376 371 
365 376 374 377 
366 378 379 373 
367 380 381 164 
368 381 382 163 
369 15 384 383 
370 385 376 377 
371 381 163 164 
372 386 388 387 
373 379 372 373 
374 389 386 387 
375 390 392 391 
376 71 70 393 
377 394 396 395 
378 382 166 163 
379 397 71 393 
380 397 393 334 
381 398 400 399 
382 401 403 402 
383 404 370 371 
384 70 69 405 
385 406 408 407 
386 173 380 164 
387 409 411 410 
388 70 405 393 
389 412 394 395 
390 413 414 165 
391 415 385 377 
392 416 418 417 
393 392 419 383 
394 361 421 420 
395 333 367 422 
396 405 423 393 
397 374 424 377 
398 403 425 402 
399 426 176 177 
400 427 428 415 
401 429 431 430 
402 432 434 433 
403 435 22 436 
404 424 427 377 
405 437 438 367 
406 378 373 339 
407 179 439 178 
408 440 432 441 
409 401 343 332 
410 403 333 422 
411 427 415 377 
412 442 444 443 
413 445 447 446 
414 447 440 448 
415 401 332 403 
416 449 429 430 
417 166 413 165 
418 183 451 450 
419 452 453 379 
420 420 421 454 
421 455 388 386 
422 456 173 182 
423 413 458 457 
424 414 457 459 
425 165 414 460 
426 461 459 462 
427 463 465 464 
428 466 467 408 
429 169 170 468 
430 469 471 470 
431 472 401 402 
432 411 473 468 
433 404 331 328 
434 165 460 177 
435 474 409 410 
436 475 477 476 
437 426 476 184 
438 372 453 375 
439 406 479 478 
440 10 480 179 
441 449 482 481 
442 342 54 180 
443 69 483 405 
444 484 486 485 
445 456 488 487 
446 380 487 489 
447 414 459 461 
448 490 452 409 
449 491 449 481 
450 323 180 181 
451 492 484 485 
452 493 167 168 
453 494 424 374 
454 495 496 415 
455 22 21 436 
456 10 23 480 
457 69 68 483 
458 72 71 397 
459 469 497 471 
460 498 497 499 
461 500 501 445 
462 500 503 502 
463 447 448 446 
464 440 504 448 
465 505 441 506 
466 74 73 345 
467 461 462 507 
468 508 510 509 
469 470 471 511 
470 470 472 402 
471 440 441 505 
472 512 408 406 
473 513 515 514 
474 502 314 420 
475 516 518 517 
476 519 521 520 
477 522 359 491 
478 385 523 376 
479 448 430 446 
480 170 410 468 
481 501 444 524 
482 447 432 440 
483 482 449 430 
484 418 525 417 
485 491 362 526 
486 405 527 423 
487 423 527 366 
488 455 20 388 
489 63 62 317 
490 65 64 348 
491 382 413 166 
492 475 426 460 
493 450 467 528 
494 175 450 474 
495 528 466 490 
496 529 466 408 
497 421 530 454 
498 500 445 503 
499 500 502 454 
500 434 531 524 
501 440 505 504 
502 518 532 517 
503 522 491 481 
504 404 523 331 
505 17 16 533 
506 534 18 535 
507 21 20 455 
508 60 59 335 
509 72 397 344 
510 536 537 499 
511 428 438 495 
512 509 498 499 
513 401 538 343 
514 491 359 362 
515 14 13 539 
516 54 9 180 
517 480 435 484 
518 459 457 465 
519 461 507 475 
520 408 467 407 
521 424 508 427 
522 530 540 454 
523 460 426 177 
524 445 501 531 
525 531 501 524 
526 503 445 446 
527 432 531 434 
528 504 482 448 
529 448 482 430 
530 390 542 541 
531 543 544 522 
532 434 524 396 
533 502 420 454 
534 545 516 546 
535 545 389 547 
536 400 548 399 
537 517 400 398 
538 473 171 468 
539 522 549 359 
540 547 387 550 
541 551 488 456 
542 469 470 402 
543 471 497 513 
544 540 500 454 
545 447 531 432 
546 506 532 552 
547 542 553 541 
548 400 554 548 
549 548 554 433 
550 552 532 518 
551 449 526 429 
552 17 533 535 
553 23 22 435 
554 73 72 344 
555 483 555 527 
556 486 435 436 
557 439 492 493 
558 507 462 556 
559 475 476 426 
560 557 529 494 
561 512 529 408 
562 428 558 438 
563 558 425 422 
564 504 505 559 
565 504 560 482 
566 560 559 542 
567 560 543 481 
568 452 561 411 
569 543 522 481 
570 513 498 515 
571 519 545 547 
572 514 442 443 
573 406 407 479 
574 76 75 322 
575 82 81 358 
576 480 484 439 
577 483 562 555 
578 342 180 323 
579 488 492 485 
580 487 488 525 
581 525 488 485 
582 456 487 380 
583 456 380 173 
584 380 489 381 
585 563 489 564 
586 381 565 382 
587 451 477 407 
588 453 557 375 
589 425 403 422 
590 504 559 560 
591 482 560 481 
592 560 542 543 
593 543 390 544 
594 472 421 538 
595 519 518 545 
596 519 547 521 
597 522 544 549 
598 359 549 351 
599 351 549 350 
600 491 526 449 
601 526 362 320 
602 18 17 535 
603 21 455 436 
604 79 78 321 
605 84 83 349 
606 483 527 405 
607 479 556 478 
608 472 538 401 
609 566 347 318 
610 393 423 334 
611 567 406 478 
612 384 392 383 
613 568 398 399 
614 20 19 388 
615 68 67 562 
616 413 457 414 
617 475 507 477 
618 510 529 512 
619 558 537 536 
620 425 536 469 
621 540 511 444 
622 540 444 501 
623 445 531 447 
624 553 559 569 
625 496 385 415 
626 570 503 431 
627 434 571 433 
628 509 512 567 
629 545 518 516 
630 547 389 387 
631 404 328 370 
632 396 524 442 
633 555 346 566 
634 57 56 337 
635 382 565 458 
636 476 477 451 
637 495 438 437 
638 495 572 496 
639 559 505 569 
640 496 574 573 
641 552 518 519 
642 403 332 333 
643 376 404 371 
644 19 18 534 
645 19 534 388 
646 75 74 360 
647 480 439 179 
648 493 551 167 
649 465 457 568 
650 461 475 460 
651 507 556 479 
652 490 557 453 
653 428 537 558 
654 428 495 415 
655 438 558 422 
656 394 412 463 
657 530 511 540 
658 434 396 571 
659 502 570 314 
660 385 573 523 
661 555 562 346 
662 521 575 520 
663 55 54 342 
664 439 493 178 
665 551 492 488 
666 551 456 182 
667 489 487 564 
668 565 489 563 
669 474 528 409 
670 557 494 375 
671 494 374 375 
672 424 510 508 
673 427 508 537 
674 508 509 499 
675 558 536 425 
676 497 536 499 
677 171 169 468 
678 425 469 402 
679 471 513 443 
680 540 501 500 
681 441 432 433 
682 506 441 554 
683 452 411 409 
684 502 503 570 
685 431 503 446 
686 532 554 400 
687 552 519 520 
688 410 411 468 
689 570 431 576 
690 376 523 404 
691 498 509 567 
692 174 410 170 
693 572 437 577 
694 506 554 532 
695 542 559 553 
696 543 542 390 
697 561 379 378 
698 545 546 389 
699 390 541 392 
700 389 546 416 
701 74 345 360 
702 457 458 568 
703 414 461 460 
704 556 462 412 
705 412 462 463 
706 183 450 175 
707 450 528 474 
708 175 474 174 
709 528 490 409 
710 557 466 529 
711 494 529 510 
712 510 512 509 
713 513 497 498 
714 511 471 443 
715 470 511 530 
716 444 511 443 
717 472 530 421 
718 524 444 442 
719 411 561 473 
720 513 514 443 
721 571 548 433 
722 314 570 363 
723 515 498 567 
724 515 567 478 
725 322 75 360 
726 484 435 486 
727 381 489 565 
728 477 507 479 
729 407 477 479 
730 476 451 183 
731 467 451 407 
732 490 453 452 
733 494 510 424 
734 469 536 497 
735 426 184 176 
736 505 506 569 
737 452 379 561 
738 496 572 574 
739 532 400 517 
740 538 421 361 
741 431 429 576 
742 396 442 395 
743 571 396 394 
744 476 183 184 
745 528 467 466 
746 490 466 557 
747 470 530 472 
748 566 346 347 
749 394 463 464 
750 439 484 492 
751 450 451 467 
752 506 552 569 
753 483 68 562 
754 367 438 422 
755 495 437 572 
756 379 453 372 
757 554 441 433 
758 325 574 319 
759 546 578 418 
760 174 474 410 
761 436 455 579 
762 537 508 499 
763 569 552 520 
764 516 517 580 
765 480 23 435 
766 487 525 564 
767 496 573 385 
768 573 574 325 
769 493 492 551 
770 541 553 575 
771 553 569 520 
772 345 73 344 
773 167 551 182 
774 427 537 428 
775 430 431 446 
776 459 465 463 
777 548 571 464 
778 363 570 576 
779 546 516 578 
780 581 412 395 
781 582 539 583 
782 556 412 581 
783 525 485 417 
784 568 458 584 
785 392 541 419 
786 565 563 584 
787 575 553 520 
788 514 581 395 
789 416 546 418 
790 521 547 550 
791 382 458 413 
792 514 515 581 
793 571 394 464 
794 398 568 584 
795 535 533 585 
796 458 565 584 
797 462 459 463 
798 465 568 399 
799 584 563 580 
800 581 515 478 
801 578 516 580 
802 512 406 567 
803 442 514 395 
804 493 168 178 
805 517 398 580 
806 392 384 391 
807 15 14 384 
808 556 581 478 
809 398 584 580 
810 563 564 578 
811 465 399 464 
812 399 548 464 
813 14 539 384 
814 486 436 579 
815 578 564 418 
816 564 525 418 
817 544 390 391 
818 387 534 550 
819 579 455 386 
820 563 578 580 
821 389 416 386 
822 419 533 383 
823 579 416 417 
824 544 391 582 
825 16 15 383 
826 416 579 386 
827 388 534 387 
828 485 486 417 
829 539 13 583 
830 534 535 550 
831 575 521 585 
832 486 579 417 
833 549 544 582 
834 585 533 419 
835 350 582 583 
836 533 16 383 
837 535 585 550 
838 391 539 582 
839 585 521 550 
840 541 575 419 
841 384 539 391 
842 350 549 582 
843 575 585 419 
844 13 12 583 
845 576 352 586 
846 77 76 316 
847 317 62 327 
848 370 328 338 
849 60 335 326 
850 573 325 336 
851 339 373 338 
852 335 59 330 
853 55 342 340 
854 337 56 340 
855 331 523 336 
856 57 337 329 
857 561 378 324 
858 342 323 341 
859 366 527 587 
860 555 566 587 
861 346 562 365 
862 67 66 365 
863 12 11 364 
864 350 583 364 
865 76 322 316 
866 62 61 327 
867 327 61 326 
868 61 60 326 
869 523 573 336 
870 473 324 172 
871 59 58 330 
872 56 55 340 
873 473 561 324 
874 171 473 172 
875 373 370 338 
876 330 58 329 
877 58 57 329 
878 352 321 586 
879 319 574 369 
880 572 577 369 
881 77 316 588 
882 576 429 352 
883 526 320 352 
884 397 334 355 
885 527 555 587 
886 360 345 353 
887 334 423 354 
888 562 67 365 
889 583 12 364 
890 316 363 588 
891 321 78 588 
892 324 378 341 
893 343 538 353 
894 63 317 356 
895 82 358 357 
896 349 83 357 
897 348 64 356 
898 420 314 315 
899 574 572 369 
900 367 333 354 
901 323 324 341 
902 4 65 589 
903 1 84 590 
904 66 4 589 
905 11 1 590 
906 332 343 355 
907 437 367 368 
908 366 587 368 
909 362 358 591 
910 587 566 592 
911 587 577 368 
912 577 587 592 
913 429 526 352 
914 344 397 355 
915 358 81 591 
916 423 366 354 
917 80 320 591 
918 78 77 588 
919 81 80 591 
920 538 361 353 
921 83 82 357 
922 64 63 356 
923 361 420 315 
924 320 362 591 
925 365 66 589 
926 364 11 590 
927 566 318 592 
928 84 349 590 
929 65 348 589 
930 321 588 586 
931 369 577 592 
932 378 339 341 
933 577 437 368 
934 363 576 586 
935 349 364 590 
936 348 365 589 
937 318 369 592 
938 588 363 586 
2 6 2 33
1575 883 885 884 
1576 882 883 884 
1592 905 900 901 
1593 906 884 907 
1594 884 908 907 
1623 906 948 882 
1685 905 32 900 
1693 31 32 905 
1700 976 948 906 
1712 30 31 908 
1713 32 33 900 
1730 86 85 885 
1735 34 35 871 
1785 31 905 908 
1819 86 885 883 
1824 87 86 883 
1829 906 882 884 
1833 30 908 998 
1838 34 871 879 
1839 900 33 879 
1841 976 906 901 
1848 908 884 998 
1849 884 885 998 
1850 2 29 1001 
1851 85 2 1001 
1858 29 30 998 
1863 33 34 879 
1870 901 906 907 
1872 998 885 1001 
1873 885 85 1001 
1876 908 905 907 
1879 29 998 1001 
1880 905 901 907 
$EndElements
